<?xml version="1.0" encoding="utf-8" standalone="no"?>
<!DOCTYPE svg PUBLIC "-//W3C//DTD SVG 1.1//EN"
  "http://www.w3.org/Graphics/SVG/1.1/DTD/svg11.dtd">
<svg xmlns:xlink="http://www.w3.org/1999/xlink" width="460.8pt" height="345.6pt" viewBox="0 0 460.8 345.6" xmlns="http://www.w3.org/2000/svg" version="1.1">
 <metadata>
  <rdf:RDF xmlns:dc="http://purl.org/dc/elements/1.1/" xmlns:cc="http://creativecommons.org/ns#" xmlns:rdf="http://www.w3.org/1999/02/22-rdf-syntax-ns#">
   <cc:Work>
    <dc:type rdf:resource="http://purl.org/dc/dcmitype/StillImage"/>
    <dc:date>2024-08-28T22:39:18.246293</dc:date>
    <dc:format>image/svg+xml</dc:format>
    <dc:creator>
     <cc:Agent>
      <dc:title>Matplotlib v3.7.1, https://matplotlib.org/</dc:title>
     </cc:Agent>
    </dc:creator>
   </cc:Work>
  </rdf:RDF>
 </metadata>
 <defs>
  <style type="text/css">*{stroke-linejoin: round; stroke-linecap: butt}</style>
 </defs>
 <g id="figure_1">
  <g id="patch_1">
   <path d="M 0 345.6 
L 460.8 345.6 
L 460.8 0 
L 0 0 
z
" style="fill: #ffffff"/>
  </g>
  <g id="axes_1">
   <g id="PolyCollection_1">
    <defs>
     <path id="ma77cfaa469" d="M 145.978182 -181.893818 
L 145.978182 -225.181091 
L 146.585467 -225.181091 
L 147.192752 -225.181091 
L 147.800037 -225.181091 
L 148.407322 -225.181091 
L 149.014607 -225.181091 
L 149.621892 -225.181091 
L 150.229177 -225.181091 
L 150.836462 -225.181091 
L 151.443747 -225.181091 
L 152.051032 -225.181091 
L 152.658316 -225.181091 
L 153.265601 -225.181091 
L 153.872886 -225.181091 
L 154.480171 -225.181091 
L 155.087456 -225.181091 
L 155.694741 -225.181091 
L 156.302026 -225.181091 
L 156.909311 -225.181091 
L 157.516596 -225.181091 
L 158.123881 -225.181091 
L 158.731166 -225.181091 
L 159.338451 -225.181091 
L 159.945736 -225.181091 
L 160.553021 -225.181091 
L 161.160306 -225.181091 
L 161.767591 -225.181091 
L 162.374876 -225.181091 
L 162.982161 -225.181091 
L 163.589446 -225.181091 
L 164.196731 -225.181091 
L 164.804016 -225.181091 
L 165.411301 -225.181091 
L 166.018586 -225.181091 
L 166.625871 -225.181091 
L 167.233156 -225.181091 
L 167.840441 -225.181091 
L 168.447726 -225.181091 
L 169.055011 -225.181091 
L 169.662296 -225.181091 
L 170.269581 -225.181091 
L 170.876866 -225.181091 
L 171.484151 -225.181091 
L 172.091436 -225.181091 
L 172.698721 -225.181091 
L 173.306006 -225.181091 
L 173.91329 -225.181091 
L 174.520575 -225.181091 
L 175.12786 -225.181091 
L 175.735145 -225.181091 
L 176.34243 -225.181091 
L 176.949715 -225.181091 
L 177.557 -225.181091 
L 178.164285 -225.181091 
L 178.77157 -225.181091 
L 179.378855 -225.181091 
L 179.98614 -225.181091 
L 180.593425 -225.181091 
L 181.20071 -225.181091 
L 181.807995 -225.181091 
L 182.41528 -225.181091 
L 183.022565 -225.181091 
L 183.62985 -225.181091 
L 184.237135 -225.181091 
L 184.84442 -225.181091 
L 185.451705 -225.181091 
L 186.05899 -225.181091 
L 186.666275 -225.181091 
L 187.27356 -225.181091 
L 187.880845 -225.181091 
L 188.48813 -225.181091 
L 189.095415 -225.181091 
L 189.7027 -225.181091 
L 190.309985 -225.181091 
L 190.91727 -225.181091 
L 191.524555 -225.181091 
L 192.13184 -225.181091 
L 192.739125 -225.181091 
L 193.34641 -225.181091 
L 193.953695 -225.181091 
L 194.560979 -225.181091 
L 195.168264 -225.181091 
L 195.775549 -225.181091 
L 196.382834 -225.181091 
L 196.990119 -225.181091 
L 197.597404 -225.181091 
L 198.204689 -225.181091 
L 198.811974 -225.181091 
L 199.419259 -225.181091 
L 200.026544 -225.181091 
L 200.633829 -225.181091 
L 201.241114 -225.181091 
L 201.848399 -225.181091 
L 202.455684 -225.181091 
L 203.062969 -225.181091 
L 203.670254 -225.181091 
L 204.277539 -225.181091 
L 204.884824 -225.181091 
L 205.492109 -225.181091 
L 206.099394 -225.181091 
L 206.099394 -181.893818 
L 206.099394 -181.893818 
L 205.492109 -181.893818 
L 204.884824 -181.893818 
L 204.277539 -181.893818 
L 203.670254 -181.893818 
L 203.062969 -181.893818 
L 202.455684 -181.893818 
L 201.848399 -181.893818 
L 201.241114 -181.893818 
L 200.633829 -181.893818 
L 200.026544 -181.893818 
L 199.419259 -181.893818 
L 198.811974 -181.893818 
L 198.204689 -181.893818 
L 197.597404 -181.893818 
L 196.990119 -181.893818 
L 196.382834 -181.893818 
L 195.775549 -181.893818 
L 195.168264 -181.893818 
L 194.560979 -181.893818 
L 193.953695 -181.893818 
L 193.34641 -181.893818 
L 192.739125 -181.893818 
L 192.13184 -181.893818 
L 191.524555 -181.893818 
L 190.91727 -181.893818 
L 190.309985 -181.893818 
L 189.7027 -181.893818 
L 189.095415 -181.893818 
L 188.48813 -181.893818 
L 187.880845 -181.893818 
L 187.27356 -181.893818 
L 186.666275 -181.893818 
L 186.05899 -181.893818 
L 185.451705 -181.893818 
L 184.84442 -181.893818 
L 184.237135 -181.893818 
L 183.62985 -181.893818 
L 183.022565 -181.893818 
L 182.41528 -181.893818 
L 181.807995 -181.893818 
L 181.20071 -181.893818 
L 180.593425 -181.893818 
L 179.98614 -181.893818 
L 179.378855 -181.893818 
L 178.77157 -181.893818 
L 178.164285 -181.893818 
L 177.557 -181.893818 
L 176.949715 -181.893818 
L 176.34243 -181.893818 
L 175.735145 -181.893818 
L 175.12786 -181.893818 
L 174.520575 -181.893818 
L 173.91329 -181.893818 
L 173.306006 -181.893818 
L 172.698721 -181.893818 
L 172.091436 -181.893818 
L 171.484151 -181.893818 
L 170.876866 -181.893818 
L 170.269581 -181.893818 
L 169.662296 -181.893818 
L 169.055011 -181.893818 
L 168.447726 -181.893818 
L 167.840441 -181.893818 
L 167.233156 -181.893818 
L 166.625871 -181.893818 
L 166.018586 -181.893818 
L 165.411301 -181.893818 
L 164.804016 -181.893818 
L 164.196731 -181.893818 
L 163.589446 -181.893818 
L 162.982161 -181.893818 
L 162.374876 -181.893818 
L 161.767591 -181.893818 
L 161.160306 -181.893818 
L 160.553021 -181.893818 
L 159.945736 -181.893818 
L 159.338451 -181.893818 
L 158.731166 -181.893818 
L 158.123881 -181.893818 
L 157.516596 -181.893818 
L 156.909311 -181.893818 
L 156.302026 -181.893818 
L 155.694741 -181.893818 
L 155.087456 -181.893818 
L 154.480171 -181.893818 
L 153.872886 -181.893818 
L 153.265601 -181.893818 
L 152.658316 -181.893818 
L 152.051032 -181.893818 
L 151.443747 -181.893818 
L 150.836462 -181.893818 
L 150.229177 -181.893818 
L 149.621892 -181.893818 
L 149.014607 -181.893818 
L 148.407322 -181.893818 
L 147.800037 -181.893818 
L 147.192752 -181.893818 
L 146.585467 -181.893818 
L 145.978182 -181.893818 
z
" style="stroke: #0066cc"/>
    </defs>
    <g clip-path="url(#pa54dfbbe1c)">
     <use xlink:href="#ma77cfaa469" x="0" y="345.6" style="fill: #0066cc; stroke: #0066cc"/>
    </g>
   </g>
   <g id="PolyCollection_2">
    <defs>
     <path id="me94af7e4cb" d="M 266.220606 -181.893818 
L 266.220606 -225.181091 
L 267.435176 -225.181091 
L 268.649746 -225.181091 
L 269.864316 -225.181091 
L 271.078886 -225.181091 
L 272.293456 -225.181091 
L 273.508026 -225.181091 
L 274.722596 -225.181091 
L 275.937166 -225.181091 
L 277.151736 -225.181091 
L 278.366305 -225.181091 
L 279.580875 -225.181091 
L 280.795445 -225.181091 
L 282.010015 -225.181091 
L 283.224585 -225.181091 
L 284.439155 -225.181091 
L 285.653725 -225.181091 
L 286.868295 -225.181091 
L 288.082865 -225.181091 
L 289.297435 -225.181091 
L 290.512005 -225.181091 
L 291.726575 -225.181091 
L 292.941145 -225.181091 
L 294.155715 -225.181091 
L 295.370285 -225.181091 
L 296.584855 -225.181091 
L 297.799425 -225.181091 
L 299.013994 -225.181091 
L 300.228564 -225.181091 
L 301.443134 -225.181091 
L 302.657704 -225.181091 
L 303.872274 -225.181091 
L 305.086844 -225.181091 
L 306.301414 -225.181091 
L 307.515984 -225.181091 
L 308.730554 -225.181091 
L 309.945124 -225.181091 
L 311.159694 -225.181091 
L 312.374264 -225.181091 
L 313.588834 -225.181091 
L 314.803404 -225.181091 
L 316.017974 -225.181091 
L 317.232544 -225.181091 
L 318.447114 -225.181091 
L 319.661684 -225.181091 
L 320.876253 -225.181091 
L 322.090823 -225.181091 
L 323.305393 -225.181091 
L 324.519963 -225.181091 
L 325.734533 -225.181091 
L 326.949103 -225.181091 
L 328.163673 -225.181091 
L 329.378243 -225.181091 
L 330.592813 -225.181091 
L 331.807383 -225.181091 
L 333.021953 -225.181091 
L 334.236523 -225.181091 
L 335.451093 -225.181091 
L 336.665663 -225.181091 
L 337.880233 -225.181091 
L 339.094803 -225.181091 
L 340.309373 -225.181091 
L 341.523942 -225.181091 
L 342.738512 -225.181091 
L 343.953082 -225.181091 
L 345.167652 -225.181091 
L 346.382222 -225.181091 
L 347.596792 -225.181091 
L 348.811362 -225.181091 
L 350.025932 -225.181091 
L 351.240502 -225.181091 
L 352.455072 -225.181091 
L 353.669642 -225.181091 
L 354.884212 -225.181091 
L 356.098782 -225.181091 
L 357.313352 -225.181091 
L 358.527922 -225.181091 
L 359.742492 -225.181091 
L 360.957062 -225.181091 
L 362.171631 -225.181091 
L 363.386201 -225.181091 
L 364.600771 -225.181091 
L 365.815341 -225.181091 
L 367.029911 -225.181091 
L 368.244481 -225.181091 
L 369.459051 -225.181091 
L 370.673621 -225.181091 
L 371.888191 -225.181091 
L 373.102761 -225.181091 
L 374.317331 -225.181091 
L 375.531901 -225.181091 
L 376.746471 -225.181091 
L 377.961041 -225.181091 
L 379.175611 -225.181091 
L 380.390181 -225.181091 
L 381.604751 -225.181091 
L 382.81932 -225.181091 
L 384.03389 -225.181091 
L 385.24846 -225.181091 
L 386.46303 -225.181091 
L 386.46303 -181.893818 
L 386.46303 -181.893818 
L 385.24846 -181.893818 
L 384.03389 -181.893818 
L 382.81932 -181.893818 
L 381.604751 -181.893818 
L 380.390181 -181.893818 
L 379.175611 -181.893818 
L 377.961041 -181.893818 
L 376.746471 -181.893818 
L 375.531901 -181.893818 
L 374.317331 -181.893818 
L 373.102761 -181.893818 
L 371.888191 -181.893818 
L 370.673621 -181.893818 
L 369.459051 -181.893818 
L 368.244481 -181.893818 
L 367.029911 -181.893818 
L 365.815341 -181.893818 
L 364.600771 -181.893818 
L 363.386201 -181.893818 
L 362.171631 -181.893818 
L 360.957062 -181.893818 
L 359.742492 -181.893818 
L 358.527922 -181.893818 
L 357.313352 -181.893818 
L 356.098782 -181.893818 
L 354.884212 -181.893818 
L 353.669642 -181.893818 
L 352.455072 -181.893818 
L 351.240502 -181.893818 
L 350.025932 -181.893818 
L 348.811362 -181.893818 
L 347.596792 -181.893818 
L 346.382222 -181.893818 
L 345.167652 -181.893818 
L 343.953082 -181.893818 
L 342.738512 -181.893818 
L 341.523942 -181.893818 
L 340.309373 -181.893818 
L 339.094803 -181.893818 
L 337.880233 -181.893818 
L 336.665663 -181.893818 
L 335.451093 -181.893818 
L 334.236523 -181.893818 
L 333.021953 -181.893818 
L 331.807383 -181.893818 
L 330.592813 -181.893818 
L 329.378243 -181.893818 
L 328.163673 -181.893818 
L 326.949103 -181.893818 
L 325.734533 -181.893818 
L 324.519963 -181.893818 
L 323.305393 -181.893818 
L 322.090823 -181.893818 
L 320.876253 -181.893818 
L 319.661684 -181.893818 
L 318.447114 -181.893818 
L 317.232544 -181.893818 
L 316.017974 -181.893818 
L 314.803404 -181.893818 
L 313.588834 -181.893818 
L 312.374264 -181.893818 
L 311.159694 -181.893818 
L 309.945124 -181.893818 
L 308.730554 -181.893818 
L 307.515984 -181.893818 
L 306.301414 -181.893818 
L 305.086844 -181.893818 
L 303.872274 -181.893818 
L 302.657704 -181.893818 
L 301.443134 -181.893818 
L 300.228564 -181.893818 
L 299.013994 -181.893818 
L 297.799425 -181.893818 
L 296.584855 -181.893818 
L 295.370285 -181.893818 
L 294.155715 -181.893818 
L 292.941145 -181.893818 
L 291.726575 -181.893818 
L 290.512005 -181.893818 
L 289.297435 -181.893818 
L 288.082865 -181.893818 
L 286.868295 -181.893818 
L 285.653725 -181.893818 
L 284.439155 -181.893818 
L 283.224585 -181.893818 
L 282.010015 -181.893818 
L 280.795445 -181.893818 
L 279.580875 -181.893818 
L 278.366305 -181.893818 
L 277.151736 -181.893818 
L 275.937166 -181.893818 
L 274.722596 -181.893818 
L 273.508026 -181.893818 
L 272.293456 -181.893818 
L 271.078886 -181.893818 
L 269.864316 -181.893818 
L 268.649746 -181.893818 
L 267.435176 -181.893818 
L 266.220606 -181.893818 
z
" style="stroke: #0066cc"/>
    </defs>
    <g clip-path="url(#pa54dfbbe1c)">
     <use xlink:href="#me94af7e4cb" x="0" y="345.6" style="fill: #0066cc; stroke: #0066cc"/>
    </g>
   </g>
   <g id="PolyCollection_3">
    <defs>
     <path id="m04925ce21c" d="M 145.978182 -116.962909 
L 145.978182 -160.250182 
L 147.192752 -160.250182 
L 148.407322 -160.250182 
L 149.621892 -160.250182 
L 150.836462 -160.250182 
L 152.051032 -160.250182 
L 153.265601 -160.250182 
L 154.480171 -160.250182 
L 155.694741 -160.250182 
L 156.909311 -160.250182 
L 158.123881 -160.250182 
L 159.338451 -160.250182 
L 160.553021 -160.250182 
L 161.767591 -160.250182 
L 162.982161 -160.250182 
L 164.196731 -160.250182 
L 165.411301 -160.250182 
L 166.625871 -160.250182 
L 167.840441 -160.250182 
L 169.055011 -160.250182 
L 170.269581 -160.250182 
L 171.484151 -160.250182 
L 172.698721 -160.250182 
L 173.91329 -160.250182 
L 175.12786 -160.250182 
L 176.34243 -160.250182 
L 177.557 -160.250182 
L 178.77157 -160.250182 
L 179.98614 -160.250182 
L 181.20071 -160.250182 
L 182.41528 -160.250182 
L 183.62985 -160.250182 
L 184.84442 -160.250182 
L 186.05899 -160.250182 
L 187.27356 -160.250182 
L 188.48813 -160.250182 
L 189.7027 -160.250182 
L 190.91727 -160.250182 
L 192.13184 -160.250182 
L 193.34641 -160.250182 
L 194.560979 -160.250182 
L 195.775549 -160.250182 
L 196.990119 -160.250182 
L 198.204689 -160.250182 
L 199.419259 -160.250182 
L 200.633829 -160.250182 
L 201.848399 -160.250182 
L 203.062969 -160.250182 
L 204.277539 -160.250182 
L 205.492109 -160.250182 
L 206.706679 -160.250182 
L 207.921249 -160.250182 
L 209.135819 -160.250182 
L 210.350389 -160.250182 
L 211.564959 -160.250182 
L 212.779529 -160.250182 
L 213.994099 -160.250182 
L 215.208669 -160.250182 
L 216.423238 -160.250182 
L 217.637808 -160.250182 
L 218.852378 -160.250182 
L 220.066948 -160.250182 
L 221.281518 -160.250182 
L 222.496088 -160.250182 
L 223.710658 -160.250182 
L 224.925228 -160.250182 
L 226.139798 -160.250182 
L 227.354368 -160.250182 
L 228.568938 -160.250182 
L 229.783508 -160.250182 
L 230.998078 -160.250182 
L 232.212648 -160.250182 
L 233.427218 -160.250182 
L 234.641788 -160.250182 
L 235.856358 -160.250182 
L 237.070927 -160.250182 
L 238.285497 -160.250182 
L 239.500067 -160.250182 
L 240.714637 -160.250182 
L 241.929207 -160.250182 
L 243.143777 -160.250182 
L 244.358347 -160.250182 
L 245.572917 -160.250182 
L 246.787487 -160.250182 
L 248.002057 -160.250182 
L 249.216627 -160.250182 
L 250.431197 -160.250182 
L 251.645767 -160.250182 
L 252.860337 -160.250182 
L 254.074907 -160.250182 
L 255.289477 -160.250182 
L 256.504047 -160.250182 
L 257.718616 -160.250182 
L 258.933186 -160.250182 
L 260.147756 -160.250182 
L 261.362326 -160.250182 
L 262.576896 -160.250182 
L 263.791466 -160.250182 
L 265.006036 -160.250182 
L 266.220606 -160.250182 
L 266.220606 -116.962909 
L 266.220606 -116.962909 
L 265.006036 -116.962909 
L 263.791466 -116.962909 
L 262.576896 -116.962909 
L 261.362326 -116.962909 
L 260.147756 -116.962909 
L 258.933186 -116.962909 
L 257.718616 -116.962909 
L 256.504047 -116.962909 
L 255.289477 -116.962909 
L 254.074907 -116.962909 
L 252.860337 -116.962909 
L 251.645767 -116.962909 
L 250.431197 -116.962909 
L 249.216627 -116.962909 
L 248.002057 -116.962909 
L 246.787487 -116.962909 
L 245.572917 -116.962909 
L 244.358347 -116.962909 
L 243.143777 -116.962909 
L 241.929207 -116.962909 
L 240.714637 -116.962909 
L 239.500067 -116.962909 
L 238.285497 -116.962909 
L 237.070927 -116.962909 
L 235.856358 -116.962909 
L 234.641788 -116.962909 
L 233.427218 -116.962909 
L 232.212648 -116.962909 
L 230.998078 -116.962909 
L 229.783508 -116.962909 
L 228.568938 -116.962909 
L 227.354368 -116.962909 
L 226.139798 -116.962909 
L 224.925228 -116.962909 
L 223.710658 -116.962909 
L 222.496088 -116.962909 
L 221.281518 -116.962909 
L 220.066948 -116.962909 
L 218.852378 -116.962909 
L 217.637808 -116.962909 
L 216.423238 -116.962909 
L 215.208669 -116.962909 
L 213.994099 -116.962909 
L 212.779529 -116.962909 
L 211.564959 -116.962909 
L 210.350389 -116.962909 
L 209.135819 -116.962909 
L 207.921249 -116.962909 
L 206.706679 -116.962909 
L 205.492109 -116.962909 
L 204.277539 -116.962909 
L 203.062969 -116.962909 
L 201.848399 -116.962909 
L 200.633829 -116.962909 
L 199.419259 -116.962909 
L 198.204689 -116.962909 
L 196.990119 -116.962909 
L 195.775549 -116.962909 
L 194.560979 -116.962909 
L 193.34641 -116.962909 
L 192.13184 -116.962909 
L 190.91727 -116.962909 
L 189.7027 -116.962909 
L 188.48813 -116.962909 
L 187.27356 -116.962909 
L 186.05899 -116.962909 
L 184.84442 -116.962909 
L 183.62985 -116.962909 
L 182.41528 -116.962909 
L 181.20071 -116.962909 
L 179.98614 -116.962909 
L 178.77157 -116.962909 
L 177.557 -116.962909 
L 176.34243 -116.962909 
L 175.12786 -116.962909 
L 173.91329 -116.962909 
L 172.698721 -116.962909 
L 171.484151 -116.962909 
L 170.269581 -116.962909 
L 169.055011 -116.962909 
L 167.840441 -116.962909 
L 166.625871 -116.962909 
L 165.411301 -116.962909 
L 164.196731 -116.962909 
L 162.982161 -116.962909 
L 161.767591 -116.962909 
L 160.553021 -116.962909 
L 159.338451 -116.962909 
L 158.123881 -116.962909 
L 156.909311 -116.962909 
L 155.694741 -116.962909 
L 154.480171 -116.962909 
L 153.265601 -116.962909 
L 152.051032 -116.962909 
L 150.836462 -116.962909 
L 149.621892 -116.962909 
L 148.407322 -116.962909 
L 147.192752 -116.962909 
L 145.978182 -116.962909 
z
" style="stroke: #0066cc"/>
    </defs>
    <g clip-path="url(#pa54dfbbe1c)">
     <use xlink:href="#m04925ce21c" x="0" y="345.6" style="fill: #0066cc; stroke: #0066cc"/>
    </g>
   </g>
   <g id="PolyCollection_4">
    <defs>
     <path id="md0f5aad44e" d="M 145.978182 -116.962909 
L 145.978182 -160.250182 
L 145.978182 -160.250182 
L 145.978182 -160.250182 
L 145.978182 -160.250182 
L 145.978182 -160.250182 
L 145.978182 -160.250182 
L 145.978182 -160.250182 
L 145.978182 -160.250182 
L 145.978182 -160.250182 
L 145.978182 -160.250182 
L 145.978182 -160.250182 
L 145.978182 -160.250182 
L 145.978182 -160.250182 
L 145.978182 -160.250182 
L 145.978182 -160.250182 
L 145.978182 -160.250182 
L 145.978182 -160.250182 
L 145.978182 -160.250182 
L 145.978182 -160.250182 
L 145.978182 -160.250182 
L 145.978182 -160.250182 
L 145.978182 -160.250182 
L 145.978182 -160.250182 
L 145.978182 -160.250182 
L 145.978182 -160.250182 
L 145.978182 -160.250182 
L 145.978182 -160.250182 
L 145.978182 -160.250182 
L 145.978182 -160.250182 
L 145.978182 -160.250182 
L 145.978182 -160.250182 
L 145.978182 -160.250182 
L 145.978182 -160.250182 
L 145.978182 -160.250182 
L 145.978182 -160.250182 
L 145.978182 -160.250182 
L 145.978182 -160.250182 
L 145.978182 -160.250182 
L 145.978182 -160.250182 
L 145.978182 -160.250182 
L 145.978182 -160.250182 
L 145.978182 -160.250182 
L 145.978182 -160.250182 
L 145.978182 -160.250182 
L 145.978182 -160.250182 
L 145.978182 -160.250182 
L 145.978182 -160.250182 
L 145.978182 -160.250182 
L 145.978182 -160.250182 
L 145.978182 -160.250182 
L 145.978182 -160.250182 
L 145.978182 -160.250182 
L 145.978182 -160.250182 
L 145.978182 -160.250182 
L 145.978182 -160.250182 
L 145.978182 -160.250182 
L 145.978182 -160.250182 
L 145.978182 -160.250182 
L 145.978182 -160.250182 
L 145.978182 -160.250182 
L 145.978182 -160.250182 
L 145.978182 -160.250182 
L 145.978182 -160.250182 
L 145.978182 -160.250182 
L 145.978182 -160.250182 
L 145.978182 -160.250182 
L 145.978182 -160.250182 
L 145.978182 -160.250182 
L 145.978182 -160.250182 
L 145.978182 -160.250182 
L 145.978182 -160.250182 
L 145.978182 -160.250182 
L 145.978182 -160.250182 
L 145.978182 -160.250182 
L 145.978182 -160.250182 
L 145.978182 -160.250182 
L 145.978182 -160.250182 
L 145.978182 -160.250182 
L 145.978182 -160.250182 
L 145.978182 -160.250182 
L 145.978182 -160.250182 
L 145.978182 -160.250182 
L 145.978182 -160.250182 
L 145.978182 -160.250182 
L 145.978182 -160.250182 
L 145.978182 -160.250182 
L 145.978182 -160.250182 
L 145.978182 -160.250182 
L 145.978182 -160.250182 
L 145.978182 -160.250182 
L 145.978182 -160.250182 
L 145.978182 -160.250182 
L 145.978182 -160.250182 
L 145.978182 -160.250182 
L 145.978182 -160.250182 
L 145.978182 -160.250182 
L 145.978182 -160.250182 
L 145.978182 -160.250182 
L 145.978182 -160.250182 
L 145.978182 -160.250182 
L 145.978182 -116.962909 
L 145.978182 -116.962909 
L 145.978182 -116.962909 
L 145.978182 -116.962909 
L 145.978182 -116.962909 
L 145.978182 -116.962909 
L 145.978182 -116.962909 
L 145.978182 -116.962909 
L 145.978182 -116.962909 
L 145.978182 -116.962909 
L 145.978182 -116.962909 
L 145.978182 -116.962909 
L 145.978182 -116.962909 
L 145.978182 -116.962909 
L 145.978182 -116.962909 
L 145.978182 -116.962909 
L 145.978182 -116.962909 
L 145.978182 -116.962909 
L 145.978182 -116.962909 
L 145.978182 -116.962909 
L 145.978182 -116.962909 
L 145.978182 -116.962909 
L 145.978182 -116.962909 
L 145.978182 -116.962909 
L 145.978182 -116.962909 
L 145.978182 -116.962909 
L 145.978182 -116.962909 
L 145.978182 -116.962909 
L 145.978182 -116.962909 
L 145.978182 -116.962909 
L 145.978182 -116.962909 
L 145.978182 -116.962909 
L 145.978182 -116.962909 
L 145.978182 -116.962909 
L 145.978182 -116.962909 
L 145.978182 -116.962909 
L 145.978182 -116.962909 
L 145.978182 -116.962909 
L 145.978182 -116.962909 
L 145.978182 -116.962909 
L 145.978182 -116.962909 
L 145.978182 -116.962909 
L 145.978182 -116.962909 
L 145.978182 -116.962909 
L 145.978182 -116.962909 
L 145.978182 -116.962909 
L 145.978182 -116.962909 
L 145.978182 -116.962909 
L 145.978182 -116.962909 
L 145.978182 -116.962909 
L 145.978182 -116.962909 
L 145.978182 -116.962909 
L 145.978182 -116.962909 
L 145.978182 -116.962909 
L 145.978182 -116.962909 
L 145.978182 -116.962909 
L 145.978182 -116.962909 
L 145.978182 -116.962909 
L 145.978182 -116.962909 
L 145.978182 -116.962909 
L 145.978182 -116.962909 
L 145.978182 -116.962909 
L 145.978182 -116.962909 
L 145.978182 -116.962909 
L 145.978182 -116.962909 
L 145.978182 -116.962909 
L 145.978182 -116.962909 
L 145.978182 -116.962909 
L 145.978182 -116.962909 
L 145.978182 -116.962909 
L 145.978182 -116.962909 
L 145.978182 -116.962909 
L 145.978182 -116.962909 
L 145.978182 -116.962909 
L 145.978182 -116.962909 
L 145.978182 -116.962909 
L 145.978182 -116.962909 
L 145.978182 -116.962909 
L 145.978182 -116.962909 
L 145.978182 -116.962909 
L 145.978182 -116.962909 
L 145.978182 -116.962909 
L 145.978182 -116.962909 
L 145.978182 -116.962909 
L 145.978182 -116.962909 
L 145.978182 -116.962909 
L 145.978182 -116.962909 
L 145.978182 -116.962909 
L 145.978182 -116.962909 
L 145.978182 -116.962909 
L 145.978182 -116.962909 
L 145.978182 -116.962909 
L 145.978182 -116.962909 
L 145.978182 -116.962909 
L 145.978182 -116.962909 
L 145.978182 -116.962909 
L 145.978182 -116.962909 
L 145.978182 -116.962909 
L 145.978182 -116.962909 
L 145.978182 -116.962909 
L 145.978182 -116.962909 
z
" style="stroke: #0066cc"/>
    </defs>
    <g clip-path="url(#pa54dfbbe1c)">
     <use xlink:href="#md0f5aad44e" x="0" y="345.6" style="fill: #0066cc; stroke: #0066cc"/>
    </g>
   </g>
   <g id="line2d_1">
    <path d="M 73.832727 163.706182 
L 398.487273 163.706182 
" clip-path="url(#pa54dfbbe1c)" style="fill: none; stroke: #0066cc; stroke-width: 1.5; stroke-linecap: square"/>
   </g>
   <g id="line2d_2">
    <path d="M 73.832727 228.637091 
L 398.487273 228.637091 
" clip-path="url(#pa54dfbbe1c)" style="fill: none; stroke: #0066cc; stroke-width: 1.5; stroke-linecap: square"/>
   </g>
   <g id="text_1">
    <!-- line1 -->
    <g transform="translate(73.832727 161.210557) scale(0.12 -0.12)">
     <defs>
      <path id="DejaVuSans-6c" d="M 603 4863 
L 1178 4863 
L 1178 0 
L 603 0 
L 603 4863 
z
" transform="scale(0.015625)"/>
      <path id="DejaVuSans-69" d="M 603 3500 
L 1178 3500 
L 1178 0 
L 603 0 
L 603 3500 
z
M 603 4863 
L 1178 4863 
L 1178 4134 
L 603 4134 
L 603 4863 
z
" transform="scale(0.015625)"/>
      <path id="DejaVuSans-6e" d="M 3513 2113 
L 3513 0 
L 2938 0 
L 2938 2094 
Q 2938 2591 2744 2837 
Q 2550 3084 2163 3084 
Q 1697 3084 1428 2787 
Q 1159 2491 1159 1978 
L 1159 0 
L 581 0 
L 581 3500 
L 1159 3500 
L 1159 2956 
Q 1366 3272 1645 3428 
Q 1925 3584 2291 3584 
Q 2894 3584 3203 3211 
Q 3513 2838 3513 2113 
z
" transform="scale(0.015625)"/>
      <path id="DejaVuSans-65" d="M 3597 1894 
L 3597 1613 
L 953 1613 
Q 991 1019 1311 708 
Q 1631 397 2203 397 
Q 2534 397 2845 478 
Q 3156 559 3463 722 
L 3463 178 
Q 3153 47 2828 -22 
Q 2503 -91 2169 -91 
Q 1331 -91 842 396 
Q 353 884 353 1716 
Q 353 2575 817 3079 
Q 1281 3584 2069 3584 
Q 2775 3584 3186 3129 
Q 3597 2675 3597 1894 
z
M 3022 2063 
Q 3016 2534 2758 2815 
Q 2500 3097 2075 3097 
Q 1594 3097 1305 2825 
Q 1016 2553 972 2059 
L 3022 2063 
z
" transform="scale(0.015625)"/>
      <path id="DejaVuSans-31" d="M 794 531 
L 1825 531 
L 1825 4091 
L 703 3866 
L 703 4441 
L 1819 4666 
L 2450 4666 
L 2450 531 
L 3481 531 
L 3481 0 
L 794 0 
L 794 531 
z
" transform="scale(0.015625)"/>
     </defs>
     <use xlink:href="#DejaVuSans-6c"/>
     <use xlink:href="#DejaVuSans-69" x="27.783203"/>
     <use xlink:href="#DejaVuSans-6e" x="55.566406"/>
     <use xlink:href="#DejaVuSans-65" x="118.945312"/>
     <use xlink:href="#DejaVuSans-31" x="180.46875"/>
    </g>
   </g>
   <g id="text_2">
    <!-- line2 -->
    <g transform="translate(73.832727 226.141466) scale(0.12 -0.12)">
     <defs>
      <path id="DejaVuSans-32" d="M 1228 531 
L 3431 531 
L 3431 0 
L 469 0 
L 469 531 
Q 828 903 1448 1529 
Q 2069 2156 2228 2338 
Q 2531 2678 2651 2914 
Q 2772 3150 2772 3378 
Q 2772 3750 2511 3984 
Q 2250 4219 1831 4219 
Q 1534 4219 1204 4116 
Q 875 4013 500 3803 
L 500 4441 
Q 881 4594 1212 4672 
Q 1544 4750 1819 4750 
Q 2544 4750 2975 4387 
Q 3406 4025 3406 3419 
Q 3406 3131 3298 2873 
Q 3191 2616 2906 2266 
Q 2828 2175 2409 1742 
Q 1991 1309 1228 531 
z
" transform="scale(0.015625)"/>
     </defs>
     <use xlink:href="#DejaVuSans-6c"/>
     <use xlink:href="#DejaVuSans-69" x="27.783203"/>
     <use xlink:href="#DejaVuSans-6e" x="55.566406"/>
     <use xlink:href="#DejaVuSans-65" x="118.945312"/>
     <use xlink:href="#DejaVuSans-32" x="180.46875"/>
    </g>
   </g>
  </g>
 </g>
 <defs>
  <clipPath id="pa54dfbbe1c">
   <rect x="57.6" y="115.008" width="357.12" height="119.04"/>
  </clipPath>
 </defs>
</svg>
