<?xml version="1.0" encoding="utf-8" standalone="no"?>
<!DOCTYPE svg PUBLIC "-//W3C//DTD SVG 1.1//EN"
  "http://www.w3.org/Graphics/SVG/1.1/DTD/svg11.dtd">
<svg xmlns:xlink="http://www.w3.org/1999/xlink" width="432pt" height="288pt" viewBox="0 0 432 288" xmlns="http://www.w3.org/2000/svg" version="1.1">
 <metadata>
  <rdf:RDF xmlns:dc="http://purl.org/dc/elements/1.1/" xmlns:cc="http://creativecommons.org/ns#" xmlns:rdf="http://www.w3.org/1999/02/22-rdf-syntax-ns#">
   <cc:Work>
    <dc:type rdf:resource="http://purl.org/dc/dcmitype/StillImage"/>
    <dc:date>2024-08-28T22:39:18.288521</dc:date>
    <dc:format>image/svg+xml</dc:format>
    <dc:creator>
     <cc:Agent>
      <dc:title>Matplotlib v3.7.1, https://matplotlib.org/</dc:title>
     </cc:Agent>
    </dc:creator>
   </cc:Work>
  </rdf:RDF>
 </metadata>
 <defs>
  <style type="text/css">*{stroke-linejoin: round; stroke-linecap: butt}</style>
 </defs>
 <g id="figure_1">
  <g id="patch_1">
   <path d="M 0 288 
L 432 288 
L 432 0 
L 0 0 
z
" style="fill: #ffffff"/>
  </g>
  <g id="axes_1">
   <g id="PolyCollection_1">
    <defs>
     <path id="mda52cd9046" d="M 278.164505 -206.713104 
L 278.164505 -209.722032 
L 278.581508 -210.038449 
L 278.998511 -210.38065 
L 279.415513 -210.749819 
L 279.832516 -211.147091 
L 280.249519 -211.573533 
L 280.666522 -212.030126 
L 281.083525 -212.517755 
L 281.500527 -213.037187 
L 281.91753 -213.589056 
L 282.334533 -214.173842 
L 282.751536 -214.791862 
L 283.168539 -215.443242 
L 283.585541 -216.127911 
L 284.002544 -216.845579 
L 284.419547 -217.595723 
L 284.83655 -218.377575 
L 285.253553 -219.190113 
L 285.670555 -220.032044 
L 286.087558 -220.901805 
L 286.504561 -221.797551 
L 286.921564 -222.717154 
L 287.338567 -223.658207 
L 287.755569 -224.618019 
L 288.172572 -225.593631 
L 288.589575 -226.581817 
L 289.006578 -227.579101 
L 289.423581 -228.581771 
L 289.840583 -229.5859 
L 290.257586 -230.587367 
L 290.674589 -231.581884 
L 291.091592 -232.565021 
L 291.508594 -233.532241 
L 291.925597 -234.478931 
L 292.3426 -235.40044 
L 292.759603 -236.292111 
L 293.176606 -237.149325 
L 293.593608 -237.967539 
L 294.010611 -238.742324 
L 294.427614 -239.469403 
L 294.844617 -240.144698 
L 295.26162 -240.764357 
L 295.678622 -241.324802 
L 296.095625 -241.822752 
L 296.512628 -242.255264 
L 296.929631 -242.619759 
L 297.346634 -242.914044 
L 297.763636 -243.136339 
L 298.180639 -243.285294 
L 298.597642 -243.36 
L 299.014645 -243.36 
L 299.431648 -243.285294 
L 299.84865 -243.136339 
L 300.265653 -242.914044 
L 300.682656 -242.619759 
L 301.099659 -242.255264 
L 301.516661 -241.822752 
L 301.933664 -241.324802 
L 302.350667 -240.764357 
L 302.76767 -240.144698 
L 303.184673 -239.469403 
L 303.601675 -238.742324 
L 304.018678 -237.967539 
L 304.435681 -237.149325 
L 304.852684 -236.292111 
L 305.269687 -235.40044 
L 305.686689 -234.478931 
L 306.103692 -233.532241 
L 306.520695 -232.565021 
L 306.937698 -231.581884 
L 307.354701 -230.587367 
L 307.771703 -229.5859 
L 308.188706 -228.581771 
L 308.605709 -227.579101 
L 309.022712 -226.581817 
L 309.439715 -225.593631 
L 309.856717 -224.618019 
L 310.27372 -223.658207 
L 310.690723 -222.717154 
L 311.107726 -221.797551 
L 311.524729 -220.901805 
L 311.941731 -220.032044 
L 312.358734 -219.190113 
L 312.775737 -218.377575 
L 313.19274 -217.595723 
L 313.609742 -216.845579 
L 314.026745 -216.127911 
L 314.443748 -215.443242 
L 314.860751 -214.791862 
L 315.277754 -214.173842 
L 315.694756 -213.589056 
L 316.111759 -213.037187 
L 316.528762 -212.517755 
L 316.945765 -212.030126 
L 317.362768 -211.573533 
L 317.77977 -211.147091 
L 318.196773 -210.749819 
L 318.613776 -210.38065 
L 319.030779 -210.038449 
L 319.447782 -209.722032 
L 319.447782 -206.713104 
L 319.447782 -206.713104 
L 319.030779 -206.713104 
L 318.613776 -206.713104 
L 318.196773 -206.713104 
L 317.77977 -206.713104 
L 317.362768 -206.713104 
L 316.945765 -206.713104 
L 316.528762 -206.713104 
L 316.111759 -206.713104 
L 315.694756 -206.713104 
L 315.277754 -206.713104 
L 314.860751 -206.713104 
L 314.443748 -206.713104 
L 314.026745 -206.713104 
L 313.609742 -206.713104 
L 313.19274 -206.713104 
L 312.775737 -206.713104 
L 312.358734 -206.713104 
L 311.941731 -206.713104 
L 311.524729 -206.713104 
L 311.107726 -206.713104 
L 310.690723 -206.713104 
L 310.27372 -206.713104 
L 309.856717 -206.713104 
L 309.439715 -206.713104 
L 309.022712 -206.713104 
L 308.605709 -206.713104 
L 308.188706 -206.713104 
L 307.771703 -206.713104 
L 307.354701 -206.713104 
L 306.937698 -206.713104 
L 306.520695 -206.713104 
L 306.103692 -206.713104 
L 305.686689 -206.713104 
L 305.269687 -206.713104 
L 304.852684 -206.713104 
L 304.435681 -206.713104 
L 304.018678 -206.713104 
L 303.601675 -206.713104 
L 303.184673 -206.713104 
L 302.76767 -206.713104 
L 302.350667 -206.713104 
L 301.933664 -206.713104 
L 301.516661 -206.713104 
L 301.099659 -206.713104 
L 300.682656 -206.713104 
L 300.265653 -206.713104 
L 299.84865 -206.713104 
L 299.431648 -206.713104 
L 299.014645 -206.713104 
L 298.597642 -206.713104 
L 298.180639 -206.713104 
L 297.763636 -206.713104 
L 297.346634 -206.713104 
L 296.929631 -206.713104 
L 296.512628 -206.713104 
L 296.095625 -206.713104 
L 295.678622 -206.713104 
L 295.26162 -206.713104 
L 294.844617 -206.713104 
L 294.427614 -206.713104 
L 294.010611 -206.713104 
L 293.593608 -206.713104 
L 293.176606 -206.713104 
L 292.759603 -206.713104 
L 292.3426 -206.713104 
L 291.925597 -206.713104 
L 291.508594 -206.713104 
L 291.091592 -206.713104 
L 290.674589 -206.713104 
L 290.257586 -206.713104 
L 289.840583 -206.713104 
L 289.423581 -206.713104 
L 289.006578 -206.713104 
L 288.589575 -206.713104 
L 288.172572 -206.713104 
L 287.755569 -206.713104 
L 287.338567 -206.713104 
L 286.921564 -206.713104 
L 286.504561 -206.713104 
L 286.087558 -206.713104 
L 285.670555 -206.713104 
L 285.253553 -206.713104 
L 284.83655 -206.713104 
L 284.419547 -206.713104 
L 284.002544 -206.713104 
L 283.585541 -206.713104 
L 283.168539 -206.713104 
L 282.751536 -206.713104 
L 282.334533 -206.713104 
L 281.91753 -206.713104 
L 281.500527 -206.713104 
L 281.083525 -206.713104 
L 280.666522 -206.713104 
L 280.249519 -206.713104 
L 279.832516 -206.713104 
L 279.415513 -206.713104 
L 278.998511 -206.713104 
L 278.581508 -206.713104 
L 278.164505 -206.713104 
z
" style="stroke: #0066cc"/>
    </defs>
    <g clip-path="url(#pe1d86a2deb)">
     <use xlink:href="#mda52cd9046" x="0" y="288" style="fill: #0066cc; stroke: #0066cc"/>
    </g>
   </g>
   <g id="PolyCollection_2">
    <defs>
     <path id="m5295766f13" d="M 319.447782 -151.728736 
L 319.447782 -188.384981 
L 319.864784 -188.384981 
L 320.281787 -188.384981 
L 320.69879 -188.384981 
L 321.115793 -188.384981 
L 321.532796 -188.384981 
L 321.949798 -188.384981 
L 322.366801 -188.384981 
L 322.783804 -188.384981 
L 323.200807 -188.384981 
L 323.617809 -188.384981 
L 324.034812 -188.384981 
L 324.451815 -188.384981 
L 324.868818 -188.384981 
L 325.285821 -188.384981 
L 325.702823 -188.384981 
L 326.119826 -188.384981 
L 326.536829 -188.384981 
L 326.953832 -188.384981 
L 327.370835 -188.384981 
L 327.787837 -188.384981 
L 328.20484 -188.384981 
L 328.621843 -188.384981 
L 329.038846 -188.384981 
L 329.455849 -188.384981 
L 329.872851 -188.384981 
L 330.289854 -188.384981 
L 330.706857 -188.384981 
L 331.12386 -188.384981 
L 331.540863 -188.384981 
L 331.957865 -188.384981 
L 332.374868 -188.384981 
L 332.791871 -188.384981 
L 333.208874 -188.384981 
L 333.625877 -188.384981 
L 334.042879 -188.384981 
L 334.459882 -188.384981 
L 334.876885 -188.384981 
L 335.293888 -188.384981 
L 335.71089 -188.384981 
L 336.127893 -188.384981 
L 336.544896 -188.384981 
L 336.961899 -188.384981 
L 337.378902 -188.384981 
L 337.795904 -188.384981 
L 338.212907 -188.384981 
L 338.62991 -188.384981 
L 339.046913 -188.384981 
L 339.463916 -188.384981 
L 339.880918 -188.384981 
L 340.297921 -188.384981 
L 340.714924 -188.384981 
L 341.131927 -188.384981 
L 341.54893 -188.384981 
L 341.965932 -188.384981 
L 342.382935 -188.384981 
L 342.799938 -188.384981 
L 343.216941 -188.384981 
L 343.633944 -188.384981 
L 344.050946 -188.384981 
L 344.467949 -188.384981 
L 344.884952 -188.384981 
L 345.301955 -188.384981 
L 345.718957 -188.384981 
L 346.13596 -188.384981 
L 346.552963 -188.384981 
L 346.969966 -188.384981 
L 347.386969 -188.384981 
L 347.803971 -188.384981 
L 348.220974 -188.384981 
L 348.637977 -188.384981 
L 349.05498 -188.384981 
L 349.471983 -188.384981 
L 349.888985 -188.384981 
L 350.305988 -188.384981 
L 350.722991 -188.384981 
L 351.139994 -188.384981 
L 351.556997 -188.384981 
L 351.973999 -188.384981 
L 352.391002 -188.384981 
L 352.808005 -188.384981 
L 353.225008 -188.384981 
L 353.642011 -188.384981 
L 354.059013 -188.384981 
L 354.476016 -188.384981 
L 354.893019 -188.384981 
L 355.310022 -188.384981 
L 355.727025 -188.384981 
L 356.144027 -188.384981 
L 356.56103 -188.384981 
L 356.978033 -188.384981 
L 357.395036 -188.384981 
L 357.812038 -188.384981 
L 358.229041 -188.384981 
L 358.646044 -188.384981 
L 359.063047 -188.384981 
L 359.48005 -188.384981 
L 359.897052 -188.384981 
L 360.314055 -188.384981 
L 360.731058 -188.384981 
L 360.731058 -151.728736 
L 360.731058 -151.728736 
L 360.314055 -151.728736 
L 359.897052 -151.728736 
L 359.48005 -151.728736 
L 359.063047 -151.728736 
L 358.646044 -151.728736 
L 358.229041 -151.728736 
L 357.812038 -151.728736 
L 357.395036 -151.728736 
L 356.978033 -151.728736 
L 356.56103 -151.728736 
L 356.144027 -151.728736 
L 355.727025 -151.728736 
L 355.310022 -151.728736 
L 354.893019 -151.728736 
L 354.476016 -151.728736 
L 354.059013 -151.728736 
L 353.642011 -151.728736 
L 353.225008 -151.728736 
L 352.808005 -151.728736 
L 352.391002 -151.728736 
L 351.973999 -151.728736 
L 351.556997 -151.728736 
L 351.139994 -151.728736 
L 350.722991 -151.728736 
L 350.305988 -151.728736 
L 349.888985 -151.728736 
L 349.471983 -151.728736 
L 349.05498 -151.728736 
L 348.637977 -151.728736 
L 348.220974 -151.728736 
L 347.803971 -151.728736 
L 347.386969 -151.728736 
L 346.969966 -151.728736 
L 346.552963 -151.728736 
L 346.13596 -151.728736 
L 345.718957 -151.728736 
L 345.301955 -151.728736 
L 344.884952 -151.728736 
L 344.467949 -151.728736 
L 344.050946 -151.728736 
L 343.633944 -151.728736 
L 343.216941 -151.728736 
L 342.799938 -151.728736 
L 342.382935 -151.728736 
L 341.965932 -151.728736 
L 341.54893 -151.728736 
L 341.131927 -151.728736 
L 340.714924 -151.728736 
L 340.297921 -151.728736 
L 339.880918 -151.728736 
L 339.463916 -151.728736 
L 339.046913 -151.728736 
L 338.62991 -151.728736 
L 338.212907 -151.728736 
L 337.795904 -151.728736 
L 337.378902 -151.728736 
L 336.961899 -151.728736 
L 336.544896 -151.728736 
L 336.127893 -151.728736 
L 335.71089 -151.728736 
L 335.293888 -151.728736 
L 334.876885 -151.728736 
L 334.459882 -151.728736 
L 334.042879 -151.728736 
L 333.625877 -151.728736 
L 333.208874 -151.728736 
L 332.791871 -151.728736 
L 332.374868 -151.728736 
L 331.957865 -151.728736 
L 331.540863 -151.728736 
L 331.12386 -151.728736 
L 330.706857 -151.728736 
L 330.289854 -151.728736 
L 329.872851 -151.728736 
L 329.455849 -151.728736 
L 329.038846 -151.728736 
L 328.621843 -151.728736 
L 328.20484 -151.728736 
L 327.787837 -151.728736 
L 327.370835 -151.728736 
L 326.953832 -151.728736 
L 326.536829 -151.728736 
L 326.119826 -151.728736 
L 325.702823 -151.728736 
L 325.285821 -151.728736 
L 324.868818 -151.728736 
L 324.451815 -151.728736 
L 324.034812 -151.728736 
L 323.617809 -151.728736 
L 323.200807 -151.728736 
L 322.783804 -151.728736 
L 322.366801 -151.728736 
L 321.949798 -151.728736 
L 321.532796 -151.728736 
L 321.115793 -151.728736 
L 320.69879 -151.728736 
L 320.281787 -151.728736 
L 319.864784 -151.728736 
L 319.447782 -151.728736 
z
" style="stroke: #0066cc"/>
    </defs>
    <g clip-path="url(#pe1d86a2deb)">
     <use xlink:href="#m5295766f13" x="0" y="288" style="fill: #0066cc; stroke: #0066cc"/>
    </g>
   </g>
   <g id="PolyCollection_3">
    <defs>
     <path id="m350973782b" d="M 123.352218 -96.744368 
L 123.352218 -96.744368 
L 124.915979 -120.051061 
L 126.479739 -128.538944 
L 128.0435 -131.63008 
L 129.60726 -132.755816 
L 131.171021 -133.16579 
L 132.734781 -133.315095 
L 134.298542 -133.369469 
L 135.862302 -133.389271 
L 137.426063 -133.396483 
L 138.989823 -133.400613 
L 140.553584 -133.400613 
L 142.117344 -133.400613 
L 143.681105 -133.400613 
L 145.244865 -133.400613 
L 146.808626 -133.400613 
L 148.372386 -133.400613 
L 149.936146 -133.400613 
L 151.499907 -133.400613 
L 153.063667 -133.400613 
L 154.627428 -133.400613 
L 156.191188 -133.400613 
L 157.754949 -133.400613 
L 159.318709 -133.400613 
L 160.88247 -133.400613 
L 162.44623 -133.400613 
L 164.009991 -133.400613 
L 165.573751 -133.400613 
L 167.137512 -133.400613 
L 168.701272 -133.400613 
L 170.265033 -133.400613 
L 171.828793 -133.400613 
L 173.392554 -133.400613 
L 174.956314 -133.400613 
L 176.520074 -133.400613 
L 178.083835 -133.400613 
L 179.647595 -133.400613 
L 181.211356 -133.400613 
L 182.775116 -133.400613 
L 184.338877 -133.400613 
L 185.902637 -133.400613 
L 187.466398 -133.400613 
L 189.030158 -133.400613 
L 190.593919 -133.400613 
L 192.157679 -133.400613 
L 193.72144 -133.400613 
L 195.2852 -133.400613 
L 196.848961 -133.400613 
L 198.412721 -133.400613 
L 199.976482 -133.400613 
L 201.540242 -133.400613 
L 203.104002 -133.400613 
L 204.667763 -133.400613 
L 206.231523 -133.400613 
L 207.795284 -133.400613 
L 209.359044 -133.400613 
L 210.922805 -133.400613 
L 212.486565 -133.400613 
L 214.050326 -133.400613 
L 215.614086 -133.400613 
L 217.177847 -133.400613 
L 218.741607 -133.400613 
L 220.305368 -133.400613 
L 221.869128 -133.400613 
L 223.432889 -133.400613 
L 224.996649 -133.400613 
L 226.56041 -133.400613 
L 228.12417 -133.400613 
L 229.68793 -133.400613 
L 231.251691 -133.400613 
L 232.815451 -133.400613 
L 234.379212 -133.400613 
L 235.942972 -133.400613 
L 237.506733 -133.400613 
L 239.070493 -133.400613 
L 240.634254 -133.400613 
L 242.198014 -133.400613 
L 243.761775 -133.400613 
L 245.325535 -133.400613 
L 246.889296 -133.400613 
L 248.453056 -133.400613 
L 250.016817 -133.400613 
L 251.580577 -133.400613 
L 253.144338 -133.400613 
L 254.708098 -133.400613 
L 256.271859 -133.400613 
L 257.835619 -133.400613 
L 259.399379 -133.400613 
L 260.96314 -133.400613 
L 262.5269 -133.400613 
L 264.090661 -111.512814 
L 265.654421 -102.122773 
L 267.218182 -98.703087 
L 268.781942 -97.457699 
L 270.345703 -97.00415 
L 271.909463 -96.838976 
L 273.473224 -96.778822 
L 275.036984 -96.756916 
L 276.600745 -96.748938 
L 278.164505 -96.746032 
L 278.164505 -96.744368 
L 278.164505 -96.744368 
L 276.600745 -96.744368 
L 275.036984 -96.744368 
L 273.473224 -96.744368 
L 271.909463 -96.744368 
L 270.345703 -96.744368 
L 268.781942 -96.744368 
L 267.218182 -96.744368 
L 265.654421 -96.744368 
L 264.090661 -96.744368 
L 262.5269 -96.744368 
L 260.96314 -96.744368 
L 259.399379 -96.744368 
L 257.835619 -96.744368 
L 256.271859 -96.744368 
L 254.708098 -96.744368 
L 253.144338 -96.744368 
L 251.580577 -96.744368 
L 250.016817 -96.744368 
L 248.453056 -96.744368 
L 246.889296 -96.744368 
L 245.325535 -96.744368 
L 243.761775 -96.744368 
L 242.198014 -96.744368 
L 240.634254 -96.744368 
L 239.070493 -96.744368 
L 237.506733 -96.744368 
L 235.942972 -96.744368 
L 234.379212 -96.744368 
L 232.815451 -96.744368 
L 231.251691 -96.744368 
L 229.68793 -96.744368 
L 228.12417 -96.744368 
L 226.56041 -96.744368 
L 224.996649 -96.744368 
L 223.432889 -96.744368 
L 221.869128 -96.744368 
L 220.305368 -96.744368 
L 218.741607 -96.744368 
L 217.177847 -96.744368 
L 215.614086 -96.744368 
L 214.050326 -96.744368 
L 212.486565 -96.744368 
L 210.922805 -96.744368 
L 209.359044 -96.744368 
L 207.795284 -96.744368 
L 206.231523 -96.744368 
L 204.667763 -96.744368 
L 203.104002 -96.744368 
L 201.540242 -96.744368 
L 199.976482 -96.744368 
L 198.412721 -96.744368 
L 196.848961 -96.744368 
L 195.2852 -96.744368 
L 193.72144 -96.744368 
L 192.157679 -96.744368 
L 190.593919 -96.744368 
L 189.030158 -96.744368 
L 187.466398 -96.744368 
L 185.902637 -96.744368 
L 184.338877 -96.744368 
L 182.775116 -96.744368 
L 181.211356 -96.744368 
L 179.647595 -96.744368 
L 178.083835 -96.744368 
L 176.520074 -96.744368 
L 174.956314 -96.744368 
L 173.392554 -96.744368 
L 171.828793 -96.744368 
L 170.265033 -96.744368 
L 168.701272 -96.744368 
L 167.137512 -96.744368 
L 165.573751 -96.744368 
L 164.009991 -96.744368 
L 162.44623 -96.744368 
L 160.88247 -96.744368 
L 159.318709 -96.744368 
L 157.754949 -96.744368 
L 156.191188 -96.744368 
L 154.627428 -96.744368 
L 153.063667 -96.744368 
L 151.499907 -96.744368 
L 149.936146 -96.744368 
L 148.372386 -96.744368 
L 146.808626 -96.744368 
L 145.244865 -96.744368 
L 143.681105 -96.744368 
L 142.117344 -96.744368 
L 140.553584 -96.744368 
L 138.989823 -96.744368 
L 137.426063 -96.744368 
L 135.862302 -96.744368 
L 134.298542 -96.744368 
L 132.734781 -96.744368 
L 131.171021 -96.744368 
L 129.60726 -96.744368 
L 128.0435 -96.744368 
L 126.479739 -96.744368 
L 124.915979 -96.744368 
L 123.352218 -96.744368 
z
" style="stroke: #0066cc; stroke-opacity: 0.3"/>
    </defs>
    <g clip-path="url(#pe1d86a2deb)">
     <use xlink:href="#m350973782b" x="0" y="288" style="fill: #0066cc; fill-opacity: 0.3; stroke: #0066cc; stroke-opacity: 0.3"/>
    </g>
   </g>
   <g id="PolyCollection_4">
    <defs>
     <path id="mcd45aa2ce2" d="M 123.352218 -96.744368 
L 123.352218 -96.744368 
L 124.915979 -117.720392 
L 126.479739 -125.359487 
L 128.0435 -128.141509 
L 129.60726 -129.154672 
L 131.171021 -129.523648 
L 132.734781 -129.658022 
L 134.298542 -129.706959 
L 135.862302 -129.724781 
L 137.426063 -129.731271 
L 138.989823 -129.734989 
L 140.553584 -129.734989 
L 142.117344 -129.734989 
L 143.681105 -129.734989 
L 145.244865 -129.734989 
L 146.808626 -129.734989 
L 148.372386 -129.734989 
L 149.936146 -129.734989 
L 151.499907 -129.734989 
L 153.063667 -129.734989 
L 154.627428 -129.734989 
L 156.191188 -129.734989 
L 157.754949 -129.734989 
L 159.318709 -129.734989 
L 160.88247 -129.734989 
L 162.44623 -129.734989 
L 164.009991 -129.734989 
L 165.573751 -129.734989 
L 167.137512 -129.734989 
L 168.701272 -129.734989 
L 170.265033 -129.734989 
L 171.828793 -129.734989 
L 173.392554 -129.734989 
L 174.956314 -129.734989 
L 176.520074 -129.734989 
L 178.083835 -129.734989 
L 179.647595 -129.734989 
L 181.211356 -129.734989 
L 182.775116 -129.734989 
L 184.338877 -129.734989 
L 185.902637 -129.734989 
L 187.466398 -129.734989 
L 189.030158 -129.734989 
L 190.593919 -129.734989 
L 192.157679 -129.734989 
L 193.72144 -129.734989 
L 195.2852 -129.734989 
L 196.848961 -129.734989 
L 198.412721 -129.734989 
L 199.976482 -129.734989 
L 201.540242 -129.734989 
L 203.104002 -129.734989 
L 204.667763 -129.734989 
L 206.231523 -129.734989 
L 207.795284 -129.734989 
L 209.359044 -129.734989 
L 210.922805 -129.734989 
L 212.486565 -129.734989 
L 214.050326 -129.734989 
L 215.614086 -129.734989 
L 217.177847 -129.734989 
L 218.741607 -129.734989 
L 220.305368 -129.734989 
L 221.869128 -129.734989 
L 223.432889 -129.734989 
L 224.996649 -129.734989 
L 226.56041 -129.734989 
L 228.12417 -129.734989 
L 229.68793 -129.734989 
L 231.251691 -129.734989 
L 232.815451 -129.734989 
L 234.379212 -129.734989 
L 235.942972 -129.734989 
L 237.506733 -129.734989 
L 239.070493 -129.734989 
L 240.634254 -129.734989 
L 242.198014 -129.734989 
L 243.761775 -129.734989 
L 245.325535 -129.734989 
L 246.889296 -129.734989 
L 248.453056 -129.734989 
L 250.016817 -129.734989 
L 251.580577 -129.734989 
L 253.144338 -129.734989 
L 254.708098 -129.734989 
L 256.271859 -129.734989 
L 257.835619 -129.734989 
L 259.399379 -129.734989 
L 260.96314 -129.734989 
L 262.5269 -129.734989 
L 264.090661 -110.03597 
L 265.654421 -101.584933 
L 267.218182 -98.507215 
L 268.781942 -97.386366 
L 270.345703 -96.978172 
L 271.909463 -96.829515 
L 273.473224 -96.775377 
L 275.036984 -96.755661 
L 276.600745 -96.748481 
L 278.164505 -96.745866 
L 278.164505 -96.744368 
L 278.164505 -96.744368 
L 276.600745 -96.744368 
L 275.036984 -96.744368 
L 273.473224 -96.744368 
L 271.909463 -96.744368 
L 270.345703 -96.744368 
L 268.781942 -96.744368 
L 267.218182 -96.744368 
L 265.654421 -96.744368 
L 264.090661 -96.744368 
L 262.5269 -96.744368 
L 260.96314 -96.744368 
L 259.399379 -96.744368 
L 257.835619 -96.744368 
L 256.271859 -96.744368 
L 254.708098 -96.744368 
L 253.144338 -96.744368 
L 251.580577 -96.744368 
L 250.016817 -96.744368 
L 248.453056 -96.744368 
L 246.889296 -96.744368 
L 245.325535 -96.744368 
L 243.761775 -96.744368 
L 242.198014 -96.744368 
L 240.634254 -96.744368 
L 239.070493 -96.744368 
L 237.506733 -96.744368 
L 235.942972 -96.744368 
L 234.379212 -96.744368 
L 232.815451 -96.744368 
L 231.251691 -96.744368 
L 229.68793 -96.744368 
L 228.12417 -96.744368 
L 226.56041 -96.744368 
L 224.996649 -96.744368 
L 223.432889 -96.744368 
L 221.869128 -96.744368 
L 220.305368 -96.744368 
L 218.741607 -96.744368 
L 217.177847 -96.744368 
L 215.614086 -96.744368 
L 214.050326 -96.744368 
L 212.486565 -96.744368 
L 210.922805 -96.744368 
L 209.359044 -96.744368 
L 207.795284 -96.744368 
L 206.231523 -96.744368 
L 204.667763 -96.744368 
L 203.104002 -96.744368 
L 201.540242 -96.744368 
L 199.976482 -96.744368 
L 198.412721 -96.744368 
L 196.848961 -96.744368 
L 195.2852 -96.744368 
L 193.72144 -96.744368 
L 192.157679 -96.744368 
L 190.593919 -96.744368 
L 189.030158 -96.744368 
L 187.466398 -96.744368 
L 185.902637 -96.744368 
L 184.338877 -96.744368 
L 182.775116 -96.744368 
L 181.211356 -96.744368 
L 179.647595 -96.744368 
L 178.083835 -96.744368 
L 176.520074 -96.744368 
L 174.956314 -96.744368 
L 173.392554 -96.744368 
L 171.828793 -96.744368 
L 170.265033 -96.744368 
L 168.701272 -96.744368 
L 167.137512 -96.744368 
L 165.573751 -96.744368 
L 164.009991 -96.744368 
L 162.44623 -96.744368 
L 160.88247 -96.744368 
L 159.318709 -96.744368 
L 157.754949 -96.744368 
L 156.191188 -96.744368 
L 154.627428 -96.744368 
L 153.063667 -96.744368 
L 151.499907 -96.744368 
L 149.936146 -96.744368 
L 148.372386 -96.744368 
L 146.808626 -96.744368 
L 145.244865 -96.744368 
L 143.681105 -96.744368 
L 142.117344 -96.744368 
L 140.553584 -96.744368 
L 138.989823 -96.744368 
L 137.426063 -96.744368 
L 135.862302 -96.744368 
L 134.298542 -96.744368 
L 132.734781 -96.744368 
L 131.171021 -96.744368 
L 129.60726 -96.744368 
L 128.0435 -96.744368 
L 126.479739 -96.744368 
L 124.915979 -96.744368 
L 123.352218 -96.744368 
z
" style="stroke: #0066cc; stroke-opacity: 0.28"/>
    </defs>
    <g clip-path="url(#pe1d86a2deb)">
     <use xlink:href="#mcd45aa2ce2" x="0" y="288" style="fill: #0066cc; fill-opacity: 0.28; stroke: #0066cc; stroke-opacity: 0.28"/>
    </g>
   </g>
   <g id="PolyCollection_5">
    <defs>
     <path id="mb4d28263c5" d="M 123.352218 -96.744368 
L 123.352218 -96.744368 
L 124.915979 -115.389723 
L 126.479739 -122.180029 
L 128.0435 -124.652937 
L 129.60726 -125.553527 
L 131.171021 -125.881505 
L 132.734781 -126.000949 
L 134.298542 -126.044449 
L 135.862302 -126.06029 
L 137.426063 -126.06606 
L 138.989823 -126.069364 
L 140.553584 -126.069364 
L 142.117344 -126.069364 
L 143.681105 -126.069364 
L 145.244865 -126.069364 
L 146.808626 -126.069364 
L 148.372386 -126.069364 
L 149.936146 -126.069364 
L 151.499907 -126.069364 
L 153.063667 -126.069364 
L 154.627428 -126.069364 
L 156.191188 -126.069364 
L 157.754949 -126.069364 
L 159.318709 -126.069364 
L 160.88247 -126.069364 
L 162.44623 -126.069364 
L 164.009991 -126.069364 
L 165.573751 -126.069364 
L 167.137512 -126.069364 
L 168.701272 -126.069364 
L 170.265033 -126.069364 
L 171.828793 -126.069364 
L 173.392554 -126.069364 
L 174.956314 -126.069364 
L 176.520074 -126.069364 
L 178.083835 -126.069364 
L 179.647595 -126.069364 
L 181.211356 -126.069364 
L 182.775116 -126.069364 
L 184.338877 -126.069364 
L 185.902637 -126.069364 
L 187.466398 -126.069364 
L 189.030158 -126.069364 
L 190.593919 -126.069364 
L 192.157679 -126.069364 
L 193.72144 -126.069364 
L 195.2852 -126.069364 
L 196.848961 -126.069364 
L 198.412721 -126.069364 
L 199.976482 -126.069364 
L 201.540242 -126.069364 
L 203.104002 -126.069364 
L 204.667763 -126.069364 
L 206.231523 -126.069364 
L 207.795284 -126.069364 
L 209.359044 -126.069364 
L 210.922805 -126.069364 
L 212.486565 -126.069364 
L 214.050326 -126.069364 
L 215.614086 -126.069364 
L 217.177847 -126.069364 
L 218.741607 -126.069364 
L 220.305368 -126.069364 
L 221.869128 -126.069364 
L 223.432889 -126.069364 
L 224.996649 -126.069364 
L 226.56041 -126.069364 
L 228.12417 -126.069364 
L 229.68793 -126.069364 
L 231.251691 -126.069364 
L 232.815451 -126.069364 
L 234.379212 -126.069364 
L 235.942972 -126.069364 
L 237.506733 -126.069364 
L 239.070493 -126.069364 
L 240.634254 -126.069364 
L 242.198014 -126.069364 
L 243.761775 -126.069364 
L 245.325535 -126.069364 
L 246.889296 -126.069364 
L 248.453056 -126.069364 
L 250.016817 -126.069364 
L 251.580577 -126.069364 
L 253.144338 -126.069364 
L 254.708098 -126.069364 
L 256.271859 -126.069364 
L 257.835619 -126.069364 
L 259.399379 -126.069364 
L 260.96314 -126.069364 
L 262.5269 -126.069364 
L 264.090661 -108.559125 
L 265.654421 -101.047092 
L 267.218182 -98.311343 
L 268.781942 -97.315032 
L 270.345703 -96.952194 
L 271.909463 -96.820054 
L 273.473224 -96.771932 
L 275.036984 -96.754406 
L 276.600745 -96.748024 
L 278.164505 -96.745699 
L 278.164505 -96.744368 
L 278.164505 -96.744368 
L 276.600745 -96.744368 
L 275.036984 -96.744368 
L 273.473224 -96.744368 
L 271.909463 -96.744368 
L 270.345703 -96.744368 
L 268.781942 -96.744368 
L 267.218182 -96.744368 
L 265.654421 -96.744368 
L 264.090661 -96.744368 
L 262.5269 -96.744368 
L 260.96314 -96.744368 
L 259.399379 -96.744368 
L 257.835619 -96.744368 
L 256.271859 -96.744368 
L 254.708098 -96.744368 
L 253.144338 -96.744368 
L 251.580577 -96.744368 
L 250.016817 -96.744368 
L 248.453056 -96.744368 
L 246.889296 -96.744368 
L 245.325535 -96.744368 
L 243.761775 -96.744368 
L 242.198014 -96.744368 
L 240.634254 -96.744368 
L 239.070493 -96.744368 
L 237.506733 -96.744368 
L 235.942972 -96.744368 
L 234.379212 -96.744368 
L 232.815451 -96.744368 
L 231.251691 -96.744368 
L 229.68793 -96.744368 
L 228.12417 -96.744368 
L 226.56041 -96.744368 
L 224.996649 -96.744368 
L 223.432889 -96.744368 
L 221.869128 -96.744368 
L 220.305368 -96.744368 
L 218.741607 -96.744368 
L 217.177847 -96.744368 
L 215.614086 -96.744368 
L 214.050326 -96.744368 
L 212.486565 -96.744368 
L 210.922805 -96.744368 
L 209.359044 -96.744368 
L 207.795284 -96.744368 
L 206.231523 -96.744368 
L 204.667763 -96.744368 
L 203.104002 -96.744368 
L 201.540242 -96.744368 
L 199.976482 -96.744368 
L 198.412721 -96.744368 
L 196.848961 -96.744368 
L 195.2852 -96.744368 
L 193.72144 -96.744368 
L 192.157679 -96.744368 
L 190.593919 -96.744368 
L 189.030158 -96.744368 
L 187.466398 -96.744368 
L 185.902637 -96.744368 
L 184.338877 -96.744368 
L 182.775116 -96.744368 
L 181.211356 -96.744368 
L 179.647595 -96.744368 
L 178.083835 -96.744368 
L 176.520074 -96.744368 
L 174.956314 -96.744368 
L 173.392554 -96.744368 
L 171.828793 -96.744368 
L 170.265033 -96.744368 
L 168.701272 -96.744368 
L 167.137512 -96.744368 
L 165.573751 -96.744368 
L 164.009991 -96.744368 
L 162.44623 -96.744368 
L 160.88247 -96.744368 
L 159.318709 -96.744368 
L 157.754949 -96.744368 
L 156.191188 -96.744368 
L 154.627428 -96.744368 
L 153.063667 -96.744368 
L 151.499907 -96.744368 
L 149.936146 -96.744368 
L 148.372386 -96.744368 
L 146.808626 -96.744368 
L 145.244865 -96.744368 
L 143.681105 -96.744368 
L 142.117344 -96.744368 
L 140.553584 -96.744368 
L 138.989823 -96.744368 
L 137.426063 -96.744368 
L 135.862302 -96.744368 
L 134.298542 -96.744368 
L 132.734781 -96.744368 
L 131.171021 -96.744368 
L 129.60726 -96.744368 
L 128.0435 -96.744368 
L 126.479739 -96.744368 
L 124.915979 -96.744368 
L 123.352218 -96.744368 
z
" style="stroke: #0066cc; stroke-opacity: 0.26"/>
    </defs>
    <g clip-path="url(#pe1d86a2deb)">
     <use xlink:href="#mb4d28263c5" x="0" y="288" style="fill: #0066cc; fill-opacity: 0.26; stroke: #0066cc; stroke-opacity: 0.26"/>
    </g>
   </g>
   <g id="PolyCollection_6">
    <defs>
     <path id="m9b8ba306d5" d="M 123.352218 -96.744368 
L 123.352218 -96.744368 
L 124.915979 -113.059053 
L 126.479739 -119.000571 
L 128.0435 -121.164366 
L 129.60726 -121.952382 
L 131.171021 -122.239363 
L 132.734781 -122.343877 
L 134.298542 -122.381939 
L 135.862302 -122.3958 
L 137.426063 -122.400848 
L 138.989823 -122.40374 
L 140.553584 -122.40374 
L 142.117344 -122.40374 
L 143.681105 -122.40374 
L 145.244865 -122.40374 
L 146.808626 -122.40374 
L 148.372386 -122.40374 
L 149.936146 -122.40374 
L 151.499907 -122.40374 
L 153.063667 -122.40374 
L 154.627428 -122.40374 
L 156.191188 -122.40374 
L 157.754949 -122.40374 
L 159.318709 -122.40374 
L 160.88247 -122.40374 
L 162.44623 -122.40374 
L 164.009991 -122.40374 
L 165.573751 -122.40374 
L 167.137512 -122.40374 
L 168.701272 -122.40374 
L 170.265033 -122.40374 
L 171.828793 -122.40374 
L 173.392554 -122.40374 
L 174.956314 -122.40374 
L 176.520074 -122.40374 
L 178.083835 -122.40374 
L 179.647595 -122.40374 
L 181.211356 -122.40374 
L 182.775116 -122.40374 
L 184.338877 -122.40374 
L 185.902637 -122.40374 
L 187.466398 -122.40374 
L 189.030158 -122.40374 
L 190.593919 -122.40374 
L 192.157679 -122.40374 
L 193.72144 -122.40374 
L 195.2852 -122.40374 
L 196.848961 -122.40374 
L 198.412721 -122.40374 
L 199.976482 -122.40374 
L 201.540242 -122.40374 
L 203.104002 -122.40374 
L 204.667763 -122.40374 
L 206.231523 -122.40374 
L 207.795284 -122.40374 
L 209.359044 -122.40374 
L 210.922805 -122.40374 
L 212.486565 -122.40374 
L 214.050326 -122.40374 
L 215.614086 -122.40374 
L 217.177847 -122.40374 
L 218.741607 -122.40374 
L 220.305368 -122.40374 
L 221.869128 -122.40374 
L 223.432889 -122.40374 
L 224.996649 -122.40374 
L 226.56041 -122.40374 
L 228.12417 -122.40374 
L 229.68793 -122.40374 
L 231.251691 -122.40374 
L 232.815451 -122.40374 
L 234.379212 -122.40374 
L 235.942972 -122.40374 
L 237.506733 -122.40374 
L 239.070493 -122.40374 
L 240.634254 -122.40374 
L 242.198014 -122.40374 
L 243.761775 -122.40374 
L 245.325535 -122.40374 
L 246.889296 -122.40374 
L 248.453056 -122.40374 
L 250.016817 -122.40374 
L 251.580577 -122.40374 
L 253.144338 -122.40374 
L 254.708098 -122.40374 
L 256.271859 -122.40374 
L 257.835619 -122.40374 
L 259.399379 -122.40374 
L 260.96314 -122.40374 
L 262.5269 -122.40374 
L 264.090661 -107.08228 
L 265.654421 -100.509252 
L 267.218182 -98.115471 
L 268.781942 -97.243699 
L 270.345703 -96.926216 
L 271.909463 -96.810594 
L 273.473224 -96.768486 
L 275.036984 -96.753151 
L 276.600745 -96.747567 
L 278.164505 -96.745533 
L 278.164505 -96.744368 
L 278.164505 -96.744368 
L 276.600745 -96.744368 
L 275.036984 -96.744368 
L 273.473224 -96.744368 
L 271.909463 -96.744368 
L 270.345703 -96.744368 
L 268.781942 -96.744368 
L 267.218182 -96.744368 
L 265.654421 -96.744368 
L 264.090661 -96.744368 
L 262.5269 -96.744368 
L 260.96314 -96.744368 
L 259.399379 -96.744368 
L 257.835619 -96.744368 
L 256.271859 -96.744368 
L 254.708098 -96.744368 
L 253.144338 -96.744368 
L 251.580577 -96.744368 
L 250.016817 -96.744368 
L 248.453056 -96.744368 
L 246.889296 -96.744368 
L 245.325535 -96.744368 
L 243.761775 -96.744368 
L 242.198014 -96.744368 
L 240.634254 -96.744368 
L 239.070493 -96.744368 
L 237.506733 -96.744368 
L 235.942972 -96.744368 
L 234.379212 -96.744368 
L 232.815451 -96.744368 
L 231.251691 -96.744368 
L 229.68793 -96.744368 
L 228.12417 -96.744368 
L 226.56041 -96.744368 
L 224.996649 -96.744368 
L 223.432889 -96.744368 
L 221.869128 -96.744368 
L 220.305368 -96.744368 
L 218.741607 -96.744368 
L 217.177847 -96.744368 
L 215.614086 -96.744368 
L 214.050326 -96.744368 
L 212.486565 -96.744368 
L 210.922805 -96.744368 
L 209.359044 -96.744368 
L 207.795284 -96.744368 
L 206.231523 -96.744368 
L 204.667763 -96.744368 
L 203.104002 -96.744368 
L 201.540242 -96.744368 
L 199.976482 -96.744368 
L 198.412721 -96.744368 
L 196.848961 -96.744368 
L 195.2852 -96.744368 
L 193.72144 -96.744368 
L 192.157679 -96.744368 
L 190.593919 -96.744368 
L 189.030158 -96.744368 
L 187.466398 -96.744368 
L 185.902637 -96.744368 
L 184.338877 -96.744368 
L 182.775116 -96.744368 
L 181.211356 -96.744368 
L 179.647595 -96.744368 
L 178.083835 -96.744368 
L 176.520074 -96.744368 
L 174.956314 -96.744368 
L 173.392554 -96.744368 
L 171.828793 -96.744368 
L 170.265033 -96.744368 
L 168.701272 -96.744368 
L 167.137512 -96.744368 
L 165.573751 -96.744368 
L 164.009991 -96.744368 
L 162.44623 -96.744368 
L 160.88247 -96.744368 
L 159.318709 -96.744368 
L 157.754949 -96.744368 
L 156.191188 -96.744368 
L 154.627428 -96.744368 
L 153.063667 -96.744368 
L 151.499907 -96.744368 
L 149.936146 -96.744368 
L 148.372386 -96.744368 
L 146.808626 -96.744368 
L 145.244865 -96.744368 
L 143.681105 -96.744368 
L 142.117344 -96.744368 
L 140.553584 -96.744368 
L 138.989823 -96.744368 
L 137.426063 -96.744368 
L 135.862302 -96.744368 
L 134.298542 -96.744368 
L 132.734781 -96.744368 
L 131.171021 -96.744368 
L 129.60726 -96.744368 
L 128.0435 -96.744368 
L 126.479739 -96.744368 
L 124.915979 -96.744368 
L 123.352218 -96.744368 
z
" style="stroke: #0066cc; stroke-opacity: 0.24"/>
    </defs>
    <g clip-path="url(#pe1d86a2deb)">
     <use xlink:href="#m9b8ba306d5" x="0" y="288" style="fill: #0066cc; fill-opacity: 0.24; stroke: #0066cc; stroke-opacity: 0.24"/>
    </g>
   </g>
   <g id="PolyCollection_7">
    <defs>
     <path id="m18c0b5e062" d="M 123.352218 -96.744368 
L 123.352218 -96.744368 
L 124.915979 -110.728384 
L 126.479739 -115.821114 
L 128.0435 -117.675795 
L 129.60726 -118.351237 
L 131.171021 -118.597221 
L 132.734781 -118.686804 
L 134.298542 -118.719428 
L 135.862302 -118.73131 
L 137.426063 -118.735637 
L 138.989823 -118.738115 
L 140.553584 -118.738115 
L 142.117344 -118.738115 
L 143.681105 -118.738115 
L 145.244865 -118.738115 
L 146.808626 -118.738115 
L 148.372386 -118.738115 
L 149.936146 -118.738115 
L 151.499907 -118.738115 
L 153.063667 -118.738115 
L 154.627428 -118.738115 
L 156.191188 -118.738115 
L 157.754949 -118.738115 
L 159.318709 -118.738115 
L 160.88247 -118.738115 
L 162.44623 -118.738115 
L 164.009991 -118.738115 
L 165.573751 -118.738115 
L 167.137512 -118.738115 
L 168.701272 -118.738115 
L 170.265033 -118.738115 
L 171.828793 -118.738115 
L 173.392554 -118.738115 
L 174.956314 -118.738115 
L 176.520074 -118.738115 
L 178.083835 -118.738115 
L 179.647595 -118.738115 
L 181.211356 -118.738115 
L 182.775116 -118.738115 
L 184.338877 -118.738115 
L 185.902637 -118.738115 
L 187.466398 -118.738115 
L 189.030158 -118.738115 
L 190.593919 -118.738115 
L 192.157679 -118.738115 
L 193.72144 -118.738115 
L 195.2852 -118.738115 
L 196.848961 -118.738115 
L 198.412721 -118.738115 
L 199.976482 -118.738115 
L 201.540242 -118.738115 
L 203.104002 -118.738115 
L 204.667763 -118.738115 
L 206.231523 -118.738115 
L 207.795284 -118.738115 
L 209.359044 -118.738115 
L 210.922805 -118.738115 
L 212.486565 -118.738115 
L 214.050326 -118.738115 
L 215.614086 -118.738115 
L 217.177847 -118.738115 
L 218.741607 -118.738115 
L 220.305368 -118.738115 
L 221.869128 -118.738115 
L 223.432889 -118.738115 
L 224.996649 -118.738115 
L 226.56041 -118.738115 
L 228.12417 -118.738115 
L 229.68793 -118.738115 
L 231.251691 -118.738115 
L 232.815451 -118.738115 
L 234.379212 -118.738115 
L 235.942972 -118.738115 
L 237.506733 -118.738115 
L 239.070493 -118.738115 
L 240.634254 -118.738115 
L 242.198014 -118.738115 
L 243.761775 -118.738115 
L 245.325535 -118.738115 
L 246.889296 -118.738115 
L 248.453056 -118.738115 
L 250.016817 -118.738115 
L 251.580577 -118.738115 
L 253.144338 -118.738115 
L 254.708098 -118.738115 
L 256.271859 -118.738115 
L 257.835619 -118.738115 
L 259.399379 -118.738115 
L 260.96314 -118.738115 
L 262.5269 -118.738115 
L 264.090661 -105.605436 
L 265.654421 -99.971411 
L 267.218182 -97.9196 
L 268.781942 -97.172366 
L 270.345703 -96.900237 
L 271.909463 -96.801133 
L 273.473224 -96.765041 
L 275.036984 -96.751897 
L 276.600745 -96.74711 
L 278.164505 -96.745366 
L 278.164505 -96.744368 
L 278.164505 -96.744368 
L 276.600745 -96.744368 
L 275.036984 -96.744368 
L 273.473224 -96.744368 
L 271.909463 -96.744368 
L 270.345703 -96.744368 
L 268.781942 -96.744368 
L 267.218182 -96.744368 
L 265.654421 -96.744368 
L 264.090661 -96.744368 
L 262.5269 -96.744368 
L 260.96314 -96.744368 
L 259.399379 -96.744368 
L 257.835619 -96.744368 
L 256.271859 -96.744368 
L 254.708098 -96.744368 
L 253.144338 -96.744368 
L 251.580577 -96.744368 
L 250.016817 -96.744368 
L 248.453056 -96.744368 
L 246.889296 -96.744368 
L 245.325535 -96.744368 
L 243.761775 -96.744368 
L 242.198014 -96.744368 
L 240.634254 -96.744368 
L 239.070493 -96.744368 
L 237.506733 -96.744368 
L 235.942972 -96.744368 
L 234.379212 -96.744368 
L 232.815451 -96.744368 
L 231.251691 -96.744368 
L 229.68793 -96.744368 
L 228.12417 -96.744368 
L 226.56041 -96.744368 
L 224.996649 -96.744368 
L 223.432889 -96.744368 
L 221.869128 -96.744368 
L 220.305368 -96.744368 
L 218.741607 -96.744368 
L 217.177847 -96.744368 
L 215.614086 -96.744368 
L 214.050326 -96.744368 
L 212.486565 -96.744368 
L 210.922805 -96.744368 
L 209.359044 -96.744368 
L 207.795284 -96.744368 
L 206.231523 -96.744368 
L 204.667763 -96.744368 
L 203.104002 -96.744368 
L 201.540242 -96.744368 
L 199.976482 -96.744368 
L 198.412721 -96.744368 
L 196.848961 -96.744368 
L 195.2852 -96.744368 
L 193.72144 -96.744368 
L 192.157679 -96.744368 
L 190.593919 -96.744368 
L 189.030158 -96.744368 
L 187.466398 -96.744368 
L 185.902637 -96.744368 
L 184.338877 -96.744368 
L 182.775116 -96.744368 
L 181.211356 -96.744368 
L 179.647595 -96.744368 
L 178.083835 -96.744368 
L 176.520074 -96.744368 
L 174.956314 -96.744368 
L 173.392554 -96.744368 
L 171.828793 -96.744368 
L 170.265033 -96.744368 
L 168.701272 -96.744368 
L 167.137512 -96.744368 
L 165.573751 -96.744368 
L 164.009991 -96.744368 
L 162.44623 -96.744368 
L 160.88247 -96.744368 
L 159.318709 -96.744368 
L 157.754949 -96.744368 
L 156.191188 -96.744368 
L 154.627428 -96.744368 
L 153.063667 -96.744368 
L 151.499907 -96.744368 
L 149.936146 -96.744368 
L 148.372386 -96.744368 
L 146.808626 -96.744368 
L 145.244865 -96.744368 
L 143.681105 -96.744368 
L 142.117344 -96.744368 
L 140.553584 -96.744368 
L 138.989823 -96.744368 
L 137.426063 -96.744368 
L 135.862302 -96.744368 
L 134.298542 -96.744368 
L 132.734781 -96.744368 
L 131.171021 -96.744368 
L 129.60726 -96.744368 
L 128.0435 -96.744368 
L 126.479739 -96.744368 
L 124.915979 -96.744368 
L 123.352218 -96.744368 
z
" style="stroke: #0066cc; stroke-opacity: 0.22"/>
    </defs>
    <g clip-path="url(#pe1d86a2deb)">
     <use xlink:href="#m18c0b5e062" x="0" y="288" style="fill: #0066cc; fill-opacity: 0.22; stroke: #0066cc; stroke-opacity: 0.22"/>
    </g>
   </g>
   <g id="PolyCollection_8">
    <defs>
     <path id="me7f52e3ba9" d="M 123.352218 -96.744368 
L 123.352218 -96.744368 
L 124.915979 -108.397715 
L 126.479739 -112.641656 
L 128.0435 -114.187224 
L 129.60726 -114.750092 
L 131.171021 -114.955079 
L 132.734781 -115.029731 
L 134.298542 -115.056918 
L 135.862302 -115.066819 
L 137.426063 -115.070425 
L 138.989823 -115.072491 
L 140.553584 -115.072491 
L 142.117344 -115.072491 
L 143.681105 -115.072491 
L 145.244865 -115.072491 
L 146.808626 -115.072491 
L 148.372386 -115.072491 
L 149.936146 -115.072491 
L 151.499907 -115.072491 
L 153.063667 -115.072491 
L 154.627428 -115.072491 
L 156.191188 -115.072491 
L 157.754949 -115.072491 
L 159.318709 -115.072491 
L 160.88247 -115.072491 
L 162.44623 -115.072491 
L 164.009991 -115.072491 
L 165.573751 -115.072491 
L 167.137512 -115.072491 
L 168.701272 -115.072491 
L 170.265033 -115.072491 
L 171.828793 -115.072491 
L 173.392554 -115.072491 
L 174.956314 -115.072491 
L 176.520074 -115.072491 
L 178.083835 -115.072491 
L 179.647595 -115.072491 
L 181.211356 -115.072491 
L 182.775116 -115.072491 
L 184.338877 -115.072491 
L 185.902637 -115.072491 
L 187.466398 -115.072491 
L 189.030158 -115.072491 
L 190.593919 -115.072491 
L 192.157679 -115.072491 
L 193.72144 -115.072491 
L 195.2852 -115.072491 
L 196.848961 -115.072491 
L 198.412721 -115.072491 
L 199.976482 -115.072491 
L 201.540242 -115.072491 
L 203.104002 -115.072491 
L 204.667763 -115.072491 
L 206.231523 -115.072491 
L 207.795284 -115.072491 
L 209.359044 -115.072491 
L 210.922805 -115.072491 
L 212.486565 -115.072491 
L 214.050326 -115.072491 
L 215.614086 -115.072491 
L 217.177847 -115.072491 
L 218.741607 -115.072491 
L 220.305368 -115.072491 
L 221.869128 -115.072491 
L 223.432889 -115.072491 
L 224.996649 -115.072491 
L 226.56041 -115.072491 
L 228.12417 -115.072491 
L 229.68793 -115.072491 
L 231.251691 -115.072491 
L 232.815451 -115.072491 
L 234.379212 -115.072491 
L 235.942972 -115.072491 
L 237.506733 -115.072491 
L 239.070493 -115.072491 
L 240.634254 -115.072491 
L 242.198014 -115.072491 
L 243.761775 -115.072491 
L 245.325535 -115.072491 
L 246.889296 -115.072491 
L 248.453056 -115.072491 
L 250.016817 -115.072491 
L 251.580577 -115.072491 
L 253.144338 -115.072491 
L 254.708098 -115.072491 
L 256.271859 -115.072491 
L 257.835619 -115.072491 
L 259.399379 -115.072491 
L 260.96314 -115.072491 
L 262.5269 -115.072491 
L 264.090661 -104.128591 
L 265.654421 -99.43357 
L 267.218182 -97.723728 
L 268.781942 -97.101033 
L 270.345703 -96.874259 
L 271.909463 -96.791672 
L 273.473224 -96.761595 
L 275.036984 -96.750642 
L 276.600745 -96.746653 
L 278.164505 -96.7452 
L 278.164505 -96.744368 
L 278.164505 -96.744368 
L 276.600745 -96.744368 
L 275.036984 -96.744368 
L 273.473224 -96.744368 
L 271.909463 -96.744368 
L 270.345703 -96.744368 
L 268.781942 -96.744368 
L 267.218182 -96.744368 
L 265.654421 -96.744368 
L 264.090661 -96.744368 
L 262.5269 -96.744368 
L 260.96314 -96.744368 
L 259.399379 -96.744368 
L 257.835619 -96.744368 
L 256.271859 -96.744368 
L 254.708098 -96.744368 
L 253.144338 -96.744368 
L 251.580577 -96.744368 
L 250.016817 -96.744368 
L 248.453056 -96.744368 
L 246.889296 -96.744368 
L 245.325535 -96.744368 
L 243.761775 -96.744368 
L 242.198014 -96.744368 
L 240.634254 -96.744368 
L 239.070493 -96.744368 
L 237.506733 -96.744368 
L 235.942972 -96.744368 
L 234.379212 -96.744368 
L 232.815451 -96.744368 
L 231.251691 -96.744368 
L 229.68793 -96.744368 
L 228.12417 -96.744368 
L 226.56041 -96.744368 
L 224.996649 -96.744368 
L 223.432889 -96.744368 
L 221.869128 -96.744368 
L 220.305368 -96.744368 
L 218.741607 -96.744368 
L 217.177847 -96.744368 
L 215.614086 -96.744368 
L 214.050326 -96.744368 
L 212.486565 -96.744368 
L 210.922805 -96.744368 
L 209.359044 -96.744368 
L 207.795284 -96.744368 
L 206.231523 -96.744368 
L 204.667763 -96.744368 
L 203.104002 -96.744368 
L 201.540242 -96.744368 
L 199.976482 -96.744368 
L 198.412721 -96.744368 
L 196.848961 -96.744368 
L 195.2852 -96.744368 
L 193.72144 -96.744368 
L 192.157679 -96.744368 
L 190.593919 -96.744368 
L 189.030158 -96.744368 
L 187.466398 -96.744368 
L 185.902637 -96.744368 
L 184.338877 -96.744368 
L 182.775116 -96.744368 
L 181.211356 -96.744368 
L 179.647595 -96.744368 
L 178.083835 -96.744368 
L 176.520074 -96.744368 
L 174.956314 -96.744368 
L 173.392554 -96.744368 
L 171.828793 -96.744368 
L 170.265033 -96.744368 
L 168.701272 -96.744368 
L 167.137512 -96.744368 
L 165.573751 -96.744368 
L 164.009991 -96.744368 
L 162.44623 -96.744368 
L 160.88247 -96.744368 
L 159.318709 -96.744368 
L 157.754949 -96.744368 
L 156.191188 -96.744368 
L 154.627428 -96.744368 
L 153.063667 -96.744368 
L 151.499907 -96.744368 
L 149.936146 -96.744368 
L 148.372386 -96.744368 
L 146.808626 -96.744368 
L 145.244865 -96.744368 
L 143.681105 -96.744368 
L 142.117344 -96.744368 
L 140.553584 -96.744368 
L 138.989823 -96.744368 
L 137.426063 -96.744368 
L 135.862302 -96.744368 
L 134.298542 -96.744368 
L 132.734781 -96.744368 
L 131.171021 -96.744368 
L 129.60726 -96.744368 
L 128.0435 -96.744368 
L 126.479739 -96.744368 
L 124.915979 -96.744368 
L 123.352218 -96.744368 
z
" style="stroke: #0066cc; stroke-opacity: 0.2"/>
    </defs>
    <g clip-path="url(#pe1d86a2deb)">
     <use xlink:href="#me7f52e3ba9" x="0" y="288" style="fill: #0066cc; fill-opacity: 0.2; stroke: #0066cc; stroke-opacity: 0.2"/>
    </g>
   </g>
   <g id="PolyCollection_9">
    <defs>
     <path id="m6092bc1952" d="M 123.352218 -96.744368 
L 123.352218 -96.744368 
L 124.915979 -106.067045 
L 126.479739 -109.462198 
L 128.0435 -110.698653 
L 129.60726 -111.148947 
L 131.171021 -111.312937 
L 132.734781 -111.372659 
L 134.298542 -111.394408 
L 135.862302 -111.402329 
L 137.426063 -111.405214 
L 138.989823 -111.406866 
L 140.553584 -111.406866 
L 142.117344 -111.406866 
L 143.681105 -111.406866 
L 145.244865 -111.406866 
L 146.808626 -111.406866 
L 148.372386 -111.406866 
L 149.936146 -111.406866 
L 151.499907 -111.406866 
L 153.063667 -111.406866 
L 154.627428 -111.406866 
L 156.191188 -111.406866 
L 157.754949 -111.406866 
L 159.318709 -111.406866 
L 160.88247 -111.406866 
L 162.44623 -111.406866 
L 164.009991 -111.406866 
L 165.573751 -111.406866 
L 167.137512 -111.406866 
L 168.701272 -111.406866 
L 170.265033 -111.406866 
L 171.828793 -111.406866 
L 173.392554 -111.406866 
L 174.956314 -111.406866 
L 176.520074 -111.406866 
L 178.083835 -111.406866 
L 179.647595 -111.406866 
L 181.211356 -111.406866 
L 182.775116 -111.406866 
L 184.338877 -111.406866 
L 185.902637 -111.406866 
L 187.466398 -111.406866 
L 189.030158 -111.406866 
L 190.593919 -111.406866 
L 192.157679 -111.406866 
L 193.72144 -111.406866 
L 195.2852 -111.406866 
L 196.848961 -111.406866 
L 198.412721 -111.406866 
L 199.976482 -111.406866 
L 201.540242 -111.406866 
L 203.104002 -111.406866 
L 204.667763 -111.406866 
L 206.231523 -111.406866 
L 207.795284 -111.406866 
L 209.359044 -111.406866 
L 210.922805 -111.406866 
L 212.486565 -111.406866 
L 214.050326 -111.406866 
L 215.614086 -111.406866 
L 217.177847 -111.406866 
L 218.741607 -111.406866 
L 220.305368 -111.406866 
L 221.869128 -111.406866 
L 223.432889 -111.406866 
L 224.996649 -111.406866 
L 226.56041 -111.406866 
L 228.12417 -111.406866 
L 229.68793 -111.406866 
L 231.251691 -111.406866 
L 232.815451 -111.406866 
L 234.379212 -111.406866 
L 235.942972 -111.406866 
L 237.506733 -111.406866 
L 239.070493 -111.406866 
L 240.634254 -111.406866 
L 242.198014 -111.406866 
L 243.761775 -111.406866 
L 245.325535 -111.406866 
L 246.889296 -111.406866 
L 248.453056 -111.406866 
L 250.016817 -111.406866 
L 251.580577 -111.406866 
L 253.144338 -111.406866 
L 254.708098 -111.406866 
L 256.271859 -111.406866 
L 257.835619 -111.406866 
L 259.399379 -111.406866 
L 260.96314 -111.406866 
L 262.5269 -111.406866 
L 264.090661 -102.651746 
L 265.654421 -98.89573 
L 267.218182 -97.527856 
L 268.781942 -97.0297 
L 270.345703 -96.848281 
L 271.909463 -96.782211 
L 273.473224 -96.75815 
L 275.036984 -96.749387 
L 276.600745 -96.746196 
L 278.164505 -96.745034 
L 278.164505 -96.744368 
L 278.164505 -96.744368 
L 276.600745 -96.744368 
L 275.036984 -96.744368 
L 273.473224 -96.744368 
L 271.909463 -96.744368 
L 270.345703 -96.744368 
L 268.781942 -96.744368 
L 267.218182 -96.744368 
L 265.654421 -96.744368 
L 264.090661 -96.744368 
L 262.5269 -96.744368 
L 260.96314 -96.744368 
L 259.399379 -96.744368 
L 257.835619 -96.744368 
L 256.271859 -96.744368 
L 254.708098 -96.744368 
L 253.144338 -96.744368 
L 251.580577 -96.744368 
L 250.016817 -96.744368 
L 248.453056 -96.744368 
L 246.889296 -96.744368 
L 245.325535 -96.744368 
L 243.761775 -96.744368 
L 242.198014 -96.744368 
L 240.634254 -96.744368 
L 239.070493 -96.744368 
L 237.506733 -96.744368 
L 235.942972 -96.744368 
L 234.379212 -96.744368 
L 232.815451 -96.744368 
L 231.251691 -96.744368 
L 229.68793 -96.744368 
L 228.12417 -96.744368 
L 226.56041 -96.744368 
L 224.996649 -96.744368 
L 223.432889 -96.744368 
L 221.869128 -96.744368 
L 220.305368 -96.744368 
L 218.741607 -96.744368 
L 217.177847 -96.744368 
L 215.614086 -96.744368 
L 214.050326 -96.744368 
L 212.486565 -96.744368 
L 210.922805 -96.744368 
L 209.359044 -96.744368 
L 207.795284 -96.744368 
L 206.231523 -96.744368 
L 204.667763 -96.744368 
L 203.104002 -96.744368 
L 201.540242 -96.744368 
L 199.976482 -96.744368 
L 198.412721 -96.744368 
L 196.848961 -96.744368 
L 195.2852 -96.744368 
L 193.72144 -96.744368 
L 192.157679 -96.744368 
L 190.593919 -96.744368 
L 189.030158 -96.744368 
L 187.466398 -96.744368 
L 185.902637 -96.744368 
L 184.338877 -96.744368 
L 182.775116 -96.744368 
L 181.211356 -96.744368 
L 179.647595 -96.744368 
L 178.083835 -96.744368 
L 176.520074 -96.744368 
L 174.956314 -96.744368 
L 173.392554 -96.744368 
L 171.828793 -96.744368 
L 170.265033 -96.744368 
L 168.701272 -96.744368 
L 167.137512 -96.744368 
L 165.573751 -96.744368 
L 164.009991 -96.744368 
L 162.44623 -96.744368 
L 160.88247 -96.744368 
L 159.318709 -96.744368 
L 157.754949 -96.744368 
L 156.191188 -96.744368 
L 154.627428 -96.744368 
L 153.063667 -96.744368 
L 151.499907 -96.744368 
L 149.936146 -96.744368 
L 148.372386 -96.744368 
L 146.808626 -96.744368 
L 145.244865 -96.744368 
L 143.681105 -96.744368 
L 142.117344 -96.744368 
L 140.553584 -96.744368 
L 138.989823 -96.744368 
L 137.426063 -96.744368 
L 135.862302 -96.744368 
L 134.298542 -96.744368 
L 132.734781 -96.744368 
L 131.171021 -96.744368 
L 129.60726 -96.744368 
L 128.0435 -96.744368 
L 126.479739 -96.744368 
L 124.915979 -96.744368 
L 123.352218 -96.744368 
z
" style="stroke: #0066cc; stroke-opacity: 0.18"/>
    </defs>
    <g clip-path="url(#pe1d86a2deb)">
     <use xlink:href="#m6092bc1952" x="0" y="288" style="fill: #0066cc; fill-opacity: 0.18; stroke: #0066cc; stroke-opacity: 0.18"/>
    </g>
   </g>
   <g id="PolyCollection_10">
    <defs>
     <path id="m56f7317fd5" d="M 123.352218 -96.744368 
L 123.352218 -96.744368 
L 124.915979 -103.736376 
L 126.479739 -106.282741 
L 128.0435 -107.210081 
L 129.60726 -107.547802 
L 131.171021 -107.670794 
L 132.734781 -107.715586 
L 134.298542 -107.731898 
L 135.862302 -107.737839 
L 137.426063 -107.740002 
L 138.989823 -107.741241 
L 140.553584 -107.741241 
L 142.117344 -107.741241 
L 143.681105 -107.741241 
L 145.244865 -107.741241 
L 146.808626 -107.741241 
L 148.372386 -107.741241 
L 149.936146 -107.741241 
L 151.499907 -107.741241 
L 153.063667 -107.741241 
L 154.627428 -107.741241 
L 156.191188 -107.741241 
L 157.754949 -107.741241 
L 159.318709 -107.741241 
L 160.88247 -107.741241 
L 162.44623 -107.741241 
L 164.009991 -107.741241 
L 165.573751 -107.741241 
L 167.137512 -107.741241 
L 168.701272 -107.741241 
L 170.265033 -107.741241 
L 171.828793 -107.741241 
L 173.392554 -107.741241 
L 174.956314 -107.741241 
L 176.520074 -107.741241 
L 178.083835 -107.741241 
L 179.647595 -107.741241 
L 181.211356 -107.741241 
L 182.775116 -107.741241 
L 184.338877 -107.741241 
L 185.902637 -107.741241 
L 187.466398 -107.741241 
L 189.030158 -107.741241 
L 190.593919 -107.741241 
L 192.157679 -107.741241 
L 193.72144 -107.741241 
L 195.2852 -107.741241 
L 196.848961 -107.741241 
L 198.412721 -107.741241 
L 199.976482 -107.741241 
L 201.540242 -107.741241 
L 203.104002 -107.741241 
L 204.667763 -107.741241 
L 206.231523 -107.741241 
L 207.795284 -107.741241 
L 209.359044 -107.741241 
L 210.922805 -107.741241 
L 212.486565 -107.741241 
L 214.050326 -107.741241 
L 215.614086 -107.741241 
L 217.177847 -107.741241 
L 218.741607 -107.741241 
L 220.305368 -107.741241 
L 221.869128 -107.741241 
L 223.432889 -107.741241 
L 224.996649 -107.741241 
L 226.56041 -107.741241 
L 228.12417 -107.741241 
L 229.68793 -107.741241 
L 231.251691 -107.741241 
L 232.815451 -107.741241 
L 234.379212 -107.741241 
L 235.942972 -107.741241 
L 237.506733 -107.741241 
L 239.070493 -107.741241 
L 240.634254 -107.741241 
L 242.198014 -107.741241 
L 243.761775 -107.741241 
L 245.325535 -107.741241 
L 246.889296 -107.741241 
L 248.453056 -107.741241 
L 250.016817 -107.741241 
L 251.580577 -107.741241 
L 253.144338 -107.741241 
L 254.708098 -107.741241 
L 256.271859 -107.741241 
L 257.835619 -107.741241 
L 259.399379 -107.741241 
L 260.96314 -107.741241 
L 262.5269 -107.741241 
L 264.090661 -101.174902 
L 265.654421 -98.357889 
L 267.218182 -97.331984 
L 268.781942 -96.958367 
L 270.345703 -96.822303 
L 271.909463 -96.77275 
L 273.473224 -96.754704 
L 275.036984 -96.748132 
L 276.600745 -96.745739 
L 278.164505 -96.744867 
L 278.164505 -96.744368 
L 278.164505 -96.744368 
L 276.600745 -96.744368 
L 275.036984 -96.744368 
L 273.473224 -96.744368 
L 271.909463 -96.744368 
L 270.345703 -96.744368 
L 268.781942 -96.744368 
L 267.218182 -96.744368 
L 265.654421 -96.744368 
L 264.090661 -96.744368 
L 262.5269 -96.744368 
L 260.96314 -96.744368 
L 259.399379 -96.744368 
L 257.835619 -96.744368 
L 256.271859 -96.744368 
L 254.708098 -96.744368 
L 253.144338 -96.744368 
L 251.580577 -96.744368 
L 250.016817 -96.744368 
L 248.453056 -96.744368 
L 246.889296 -96.744368 
L 245.325535 -96.744368 
L 243.761775 -96.744368 
L 242.198014 -96.744368 
L 240.634254 -96.744368 
L 239.070493 -96.744368 
L 237.506733 -96.744368 
L 235.942972 -96.744368 
L 234.379212 -96.744368 
L 232.815451 -96.744368 
L 231.251691 -96.744368 
L 229.68793 -96.744368 
L 228.12417 -96.744368 
L 226.56041 -96.744368 
L 224.996649 -96.744368 
L 223.432889 -96.744368 
L 221.869128 -96.744368 
L 220.305368 -96.744368 
L 218.741607 -96.744368 
L 217.177847 -96.744368 
L 215.614086 -96.744368 
L 214.050326 -96.744368 
L 212.486565 -96.744368 
L 210.922805 -96.744368 
L 209.359044 -96.744368 
L 207.795284 -96.744368 
L 206.231523 -96.744368 
L 204.667763 -96.744368 
L 203.104002 -96.744368 
L 201.540242 -96.744368 
L 199.976482 -96.744368 
L 198.412721 -96.744368 
L 196.848961 -96.744368 
L 195.2852 -96.744368 
L 193.72144 -96.744368 
L 192.157679 -96.744368 
L 190.593919 -96.744368 
L 189.030158 -96.744368 
L 187.466398 -96.744368 
L 185.902637 -96.744368 
L 184.338877 -96.744368 
L 182.775116 -96.744368 
L 181.211356 -96.744368 
L 179.647595 -96.744368 
L 178.083835 -96.744368 
L 176.520074 -96.744368 
L 174.956314 -96.744368 
L 173.392554 -96.744368 
L 171.828793 -96.744368 
L 170.265033 -96.744368 
L 168.701272 -96.744368 
L 167.137512 -96.744368 
L 165.573751 -96.744368 
L 164.009991 -96.744368 
L 162.44623 -96.744368 
L 160.88247 -96.744368 
L 159.318709 -96.744368 
L 157.754949 -96.744368 
L 156.191188 -96.744368 
L 154.627428 -96.744368 
L 153.063667 -96.744368 
L 151.499907 -96.744368 
L 149.936146 -96.744368 
L 148.372386 -96.744368 
L 146.808626 -96.744368 
L 145.244865 -96.744368 
L 143.681105 -96.744368 
L 142.117344 -96.744368 
L 140.553584 -96.744368 
L 138.989823 -96.744368 
L 137.426063 -96.744368 
L 135.862302 -96.744368 
L 134.298542 -96.744368 
L 132.734781 -96.744368 
L 131.171021 -96.744368 
L 129.60726 -96.744368 
L 128.0435 -96.744368 
L 126.479739 -96.744368 
L 124.915979 -96.744368 
L 123.352218 -96.744368 
z
" style="stroke: #0066cc; stroke-opacity: 0.16"/>
    </defs>
    <g clip-path="url(#pe1d86a2deb)">
     <use xlink:href="#m56f7317fd5" x="0" y="288" style="fill: #0066cc; fill-opacity: 0.16; stroke: #0066cc; stroke-opacity: 0.16"/>
    </g>
   </g>
   <g id="PolyCollection_11">
    <defs>
     <path id="m57a6d85530" d="M 123.352218 -96.744368 
L 123.352218 -96.744368 
L 124.915979 -101.405707 
L 126.479739 -103.103283 
L 128.0435 -103.72151 
L 129.60726 -103.946658 
L 131.171021 -104.028652 
L 132.734781 -104.058513 
L 134.298542 -104.069388 
L 135.862302 -104.073349 
L 137.426063 -104.074791 
L 138.989823 -104.075617 
L 140.553584 -104.075617 
L 142.117344 -104.075617 
L 143.681105 -104.075617 
L 145.244865 -104.075617 
L 146.808626 -104.075617 
L 148.372386 -104.075617 
L 149.936146 -104.075617 
L 151.499907 -104.075617 
L 153.063667 -104.075617 
L 154.627428 -104.075617 
L 156.191188 -104.075617 
L 157.754949 -104.075617 
L 159.318709 -104.075617 
L 160.88247 -104.075617 
L 162.44623 -104.075617 
L 164.009991 -104.075617 
L 165.573751 -104.075617 
L 167.137512 -104.075617 
L 168.701272 -104.075617 
L 170.265033 -104.075617 
L 171.828793 -104.075617 
L 173.392554 -104.075617 
L 174.956314 -104.075617 
L 176.520074 -104.075617 
L 178.083835 -104.075617 
L 179.647595 -104.075617 
L 181.211356 -104.075617 
L 182.775116 -104.075617 
L 184.338877 -104.075617 
L 185.902637 -104.075617 
L 187.466398 -104.075617 
L 189.030158 -104.075617 
L 190.593919 -104.075617 
L 192.157679 -104.075617 
L 193.72144 -104.075617 
L 195.2852 -104.075617 
L 196.848961 -104.075617 
L 198.412721 -104.075617 
L 199.976482 -104.075617 
L 201.540242 -104.075617 
L 203.104002 -104.075617 
L 204.667763 -104.075617 
L 206.231523 -104.075617 
L 207.795284 -104.075617 
L 209.359044 -104.075617 
L 210.922805 -104.075617 
L 212.486565 -104.075617 
L 214.050326 -104.075617 
L 215.614086 -104.075617 
L 217.177847 -104.075617 
L 218.741607 -104.075617 
L 220.305368 -104.075617 
L 221.869128 -104.075617 
L 223.432889 -104.075617 
L 224.996649 -104.075617 
L 226.56041 -104.075617 
L 228.12417 -104.075617 
L 229.68793 -104.075617 
L 231.251691 -104.075617 
L 232.815451 -104.075617 
L 234.379212 -104.075617 
L 235.942972 -104.075617 
L 237.506733 -104.075617 
L 239.070493 -104.075617 
L 240.634254 -104.075617 
L 242.198014 -104.075617 
L 243.761775 -104.075617 
L 245.325535 -104.075617 
L 246.889296 -104.075617 
L 248.453056 -104.075617 
L 250.016817 -104.075617 
L 251.580577 -104.075617 
L 253.144338 -104.075617 
L 254.708098 -104.075617 
L 256.271859 -104.075617 
L 257.835619 -104.075617 
L 259.399379 -104.075617 
L 260.96314 -104.075617 
L 262.5269 -104.075617 
L 264.090661 -99.698057 
L 265.654421 -97.820049 
L 267.218182 -97.136112 
L 268.781942 -96.887034 
L 270.345703 -96.796324 
L 271.909463 -96.76329 
L 273.473224 -96.751259 
L 275.036984 -96.746877 
L 276.600745 -96.745282 
L 278.164505 -96.744701 
L 278.164505 -96.744368 
L 278.164505 -96.744368 
L 276.600745 -96.744368 
L 275.036984 -96.744368 
L 273.473224 -96.744368 
L 271.909463 -96.744368 
L 270.345703 -96.744368 
L 268.781942 -96.744368 
L 267.218182 -96.744368 
L 265.654421 -96.744368 
L 264.090661 -96.744368 
L 262.5269 -96.744368 
L 260.96314 -96.744368 
L 259.399379 -96.744368 
L 257.835619 -96.744368 
L 256.271859 -96.744368 
L 254.708098 -96.744368 
L 253.144338 -96.744368 
L 251.580577 -96.744368 
L 250.016817 -96.744368 
L 248.453056 -96.744368 
L 246.889296 -96.744368 
L 245.325535 -96.744368 
L 243.761775 -96.744368 
L 242.198014 -96.744368 
L 240.634254 -96.744368 
L 239.070493 -96.744368 
L 237.506733 -96.744368 
L 235.942972 -96.744368 
L 234.379212 -96.744368 
L 232.815451 -96.744368 
L 231.251691 -96.744368 
L 229.68793 -96.744368 
L 228.12417 -96.744368 
L 226.56041 -96.744368 
L 224.996649 -96.744368 
L 223.432889 -96.744368 
L 221.869128 -96.744368 
L 220.305368 -96.744368 
L 218.741607 -96.744368 
L 217.177847 -96.744368 
L 215.614086 -96.744368 
L 214.050326 -96.744368 
L 212.486565 -96.744368 
L 210.922805 -96.744368 
L 209.359044 -96.744368 
L 207.795284 -96.744368 
L 206.231523 -96.744368 
L 204.667763 -96.744368 
L 203.104002 -96.744368 
L 201.540242 -96.744368 
L 199.976482 -96.744368 
L 198.412721 -96.744368 
L 196.848961 -96.744368 
L 195.2852 -96.744368 
L 193.72144 -96.744368 
L 192.157679 -96.744368 
L 190.593919 -96.744368 
L 189.030158 -96.744368 
L 187.466398 -96.744368 
L 185.902637 -96.744368 
L 184.338877 -96.744368 
L 182.775116 -96.744368 
L 181.211356 -96.744368 
L 179.647595 -96.744368 
L 178.083835 -96.744368 
L 176.520074 -96.744368 
L 174.956314 -96.744368 
L 173.392554 -96.744368 
L 171.828793 -96.744368 
L 170.265033 -96.744368 
L 168.701272 -96.744368 
L 167.137512 -96.744368 
L 165.573751 -96.744368 
L 164.009991 -96.744368 
L 162.44623 -96.744368 
L 160.88247 -96.744368 
L 159.318709 -96.744368 
L 157.754949 -96.744368 
L 156.191188 -96.744368 
L 154.627428 -96.744368 
L 153.063667 -96.744368 
L 151.499907 -96.744368 
L 149.936146 -96.744368 
L 148.372386 -96.744368 
L 146.808626 -96.744368 
L 145.244865 -96.744368 
L 143.681105 -96.744368 
L 142.117344 -96.744368 
L 140.553584 -96.744368 
L 138.989823 -96.744368 
L 137.426063 -96.744368 
L 135.862302 -96.744368 
L 134.298542 -96.744368 
L 132.734781 -96.744368 
L 131.171021 -96.744368 
L 129.60726 -96.744368 
L 128.0435 -96.744368 
L 126.479739 -96.744368 
L 124.915979 -96.744368 
L 123.352218 -96.744368 
z
" style="stroke: #0066cc; stroke-opacity: 0.14"/>
    </defs>
    <g clip-path="url(#pe1d86a2deb)">
     <use xlink:href="#m57a6d85530" x="0" y="288" style="fill: #0066cc; fill-opacity: 0.14; stroke: #0066cc; stroke-opacity: 0.14"/>
    </g>
   </g>
   <g id="PolyCollection_12">
    <defs>
     <path id="m4cad8846d4" d="M 123.352218 -96.744368 
L 123.352218 -96.744368 
L 124.915979 -99.075037 
L 126.479739 -99.923826 
L 128.0435 -100.232939 
L 129.60726 -100.345513 
L 131.171021 -100.38651 
L 132.734781 -100.401441 
L 134.298542 -100.406878 
L 135.862302 -100.408858 
L 137.426063 -100.409579 
L 138.989823 -100.409992 
L 140.553584 -100.409992 
L 142.117344 -100.409992 
L 143.681105 -100.409992 
L 145.244865 -100.409992 
L 146.808626 -100.409992 
L 148.372386 -100.409992 
L 149.936146 -100.409992 
L 151.499907 -100.409992 
L 153.063667 -100.409992 
L 154.627428 -100.409992 
L 156.191188 -100.409992 
L 157.754949 -100.409992 
L 159.318709 -100.409992 
L 160.88247 -100.409992 
L 162.44623 -100.409992 
L 164.009991 -100.409992 
L 165.573751 -100.409992 
L 167.137512 -100.409992 
L 168.701272 -100.409992 
L 170.265033 -100.409992 
L 171.828793 -100.409992 
L 173.392554 -100.409992 
L 174.956314 -100.409992 
L 176.520074 -100.409992 
L 178.083835 -100.409992 
L 179.647595 -100.409992 
L 181.211356 -100.409992 
L 182.775116 -100.409992 
L 184.338877 -100.409992 
L 185.902637 -100.409992 
L 187.466398 -100.409992 
L 189.030158 -100.409992 
L 190.593919 -100.409992 
L 192.157679 -100.409992 
L 193.72144 -100.409992 
L 195.2852 -100.409992 
L 196.848961 -100.409992 
L 198.412721 -100.409992 
L 199.976482 -100.409992 
L 201.540242 -100.409992 
L 203.104002 -100.409992 
L 204.667763 -100.409992 
L 206.231523 -100.409992 
L 207.795284 -100.409992 
L 209.359044 -100.409992 
L 210.922805 -100.409992 
L 212.486565 -100.409992 
L 214.050326 -100.409992 
L 215.614086 -100.409992 
L 217.177847 -100.409992 
L 218.741607 -100.409992 
L 220.305368 -100.409992 
L 221.869128 -100.409992 
L 223.432889 -100.409992 
L 224.996649 -100.409992 
L 226.56041 -100.409992 
L 228.12417 -100.409992 
L 229.68793 -100.409992 
L 231.251691 -100.409992 
L 232.815451 -100.409992 
L 234.379212 -100.409992 
L 235.942972 -100.409992 
L 237.506733 -100.409992 
L 239.070493 -100.409992 
L 240.634254 -100.409992 
L 242.198014 -100.409992 
L 243.761775 -100.409992 
L 245.325535 -100.409992 
L 246.889296 -100.409992 
L 248.453056 -100.409992 
L 250.016817 -100.409992 
L 251.580577 -100.409992 
L 253.144338 -100.409992 
L 254.708098 -100.409992 
L 256.271859 -100.409992 
L 257.835619 -100.409992 
L 259.399379 -100.409992 
L 260.96314 -100.409992 
L 262.5269 -100.409992 
L 264.090661 -98.221213 
L 265.654421 -97.282208 
L 267.218182 -96.94024 
L 268.781942 -96.815701 
L 270.345703 -96.770346 
L 271.909463 -96.753829 
L 273.473224 -96.747813 
L 275.036984 -96.745623 
L 276.600745 -96.744825 
L 278.164505 -96.744534 
L 278.164505 -96.744368 
L 278.164505 -96.744368 
L 276.600745 -96.744368 
L 275.036984 -96.744368 
L 273.473224 -96.744368 
L 271.909463 -96.744368 
L 270.345703 -96.744368 
L 268.781942 -96.744368 
L 267.218182 -96.744368 
L 265.654421 -96.744368 
L 264.090661 -96.744368 
L 262.5269 -96.744368 
L 260.96314 -96.744368 
L 259.399379 -96.744368 
L 257.835619 -96.744368 
L 256.271859 -96.744368 
L 254.708098 -96.744368 
L 253.144338 -96.744368 
L 251.580577 -96.744368 
L 250.016817 -96.744368 
L 248.453056 -96.744368 
L 246.889296 -96.744368 
L 245.325535 -96.744368 
L 243.761775 -96.744368 
L 242.198014 -96.744368 
L 240.634254 -96.744368 
L 239.070493 -96.744368 
L 237.506733 -96.744368 
L 235.942972 -96.744368 
L 234.379212 -96.744368 
L 232.815451 -96.744368 
L 231.251691 -96.744368 
L 229.68793 -96.744368 
L 228.12417 -96.744368 
L 226.56041 -96.744368 
L 224.996649 -96.744368 
L 223.432889 -96.744368 
L 221.869128 -96.744368 
L 220.305368 -96.744368 
L 218.741607 -96.744368 
L 217.177847 -96.744368 
L 215.614086 -96.744368 
L 214.050326 -96.744368 
L 212.486565 -96.744368 
L 210.922805 -96.744368 
L 209.359044 -96.744368 
L 207.795284 -96.744368 
L 206.231523 -96.744368 
L 204.667763 -96.744368 
L 203.104002 -96.744368 
L 201.540242 -96.744368 
L 199.976482 -96.744368 
L 198.412721 -96.744368 
L 196.848961 -96.744368 
L 195.2852 -96.744368 
L 193.72144 -96.744368 
L 192.157679 -96.744368 
L 190.593919 -96.744368 
L 189.030158 -96.744368 
L 187.466398 -96.744368 
L 185.902637 -96.744368 
L 184.338877 -96.744368 
L 182.775116 -96.744368 
L 181.211356 -96.744368 
L 179.647595 -96.744368 
L 178.083835 -96.744368 
L 176.520074 -96.744368 
L 174.956314 -96.744368 
L 173.392554 -96.744368 
L 171.828793 -96.744368 
L 170.265033 -96.744368 
L 168.701272 -96.744368 
L 167.137512 -96.744368 
L 165.573751 -96.744368 
L 164.009991 -96.744368 
L 162.44623 -96.744368 
L 160.88247 -96.744368 
L 159.318709 -96.744368 
L 157.754949 -96.744368 
L 156.191188 -96.744368 
L 154.627428 -96.744368 
L 153.063667 -96.744368 
L 151.499907 -96.744368 
L 149.936146 -96.744368 
L 148.372386 -96.744368 
L 146.808626 -96.744368 
L 145.244865 -96.744368 
L 143.681105 -96.744368 
L 142.117344 -96.744368 
L 140.553584 -96.744368 
L 138.989823 -96.744368 
L 137.426063 -96.744368 
L 135.862302 -96.744368 
L 134.298542 -96.744368 
L 132.734781 -96.744368 
L 131.171021 -96.744368 
L 129.60726 -96.744368 
L 128.0435 -96.744368 
L 126.479739 -96.744368 
L 124.915979 -96.744368 
L 123.352218 -96.744368 
z
" style="stroke: #0066cc; stroke-opacity: 0.12"/>
    </defs>
    <g clip-path="url(#pe1d86a2deb)">
     <use xlink:href="#m4cad8846d4" x="0" y="288" style="fill: #0066cc; fill-opacity: 0.12; stroke: #0066cc; stroke-opacity: 0.12"/>
    </g>
   </g>
   <g id="PolyCollection_13">
    <defs>
     <path id="m893e465535" d="M 123.352218 -41.76 
L 123.352218 -78.416245 
L 125.437232 -78.416245 
L 127.522246 -78.416245 
L 129.60726 -78.416245 
L 131.692274 -78.416245 
L 133.777288 -78.416245 
L 135.862302 -78.416245 
L 137.947316 -78.416245 
L 140.03233 -78.416245 
L 142.117344 -78.416245 
L 144.202358 -78.416245 
L 146.287372 -78.416245 
L 148.372386 -78.416245 
L 150.4574 -78.416245 
L 152.542414 -78.416245 
L 154.627428 -78.416245 
L 156.712442 -78.416245 
L 158.797456 -78.416245 
L 160.88247 -78.416245 
L 162.967484 -78.416245 
L 165.052498 -78.416245 
L 167.137512 -78.416245 
L 169.222526 -78.416245 
L 171.30754 -78.416245 
L 173.392554 -78.416245 
L 175.477567 -78.416245 
L 177.562581 -78.416245 
L 179.647595 -78.416245 
L 181.732609 -78.416245 
L 183.817623 -78.416245 
L 185.902637 -78.416245 
L 187.987651 -78.416245 
L 190.072665 -78.416245 
L 192.157679 -78.416245 
L 194.242693 -78.416245 
L 196.327707 -78.416245 
L 198.412721 -78.416245 
L 200.497735 -78.416245 
L 202.582749 -78.416245 
L 204.667763 -78.416245 
L 206.752777 -78.416245 
L 208.837791 -78.416245 
L 210.922805 -78.416245 
L 213.007819 -78.416245 
L 215.092833 -78.416245 
L 217.177847 -78.416245 
L 219.262861 -78.416245 
L 221.347875 -78.416245 
L 223.432889 -78.416245 
L 225.517903 -78.416245 
L 227.602917 -78.416245 
L 229.68793 -78.416245 
L 231.772944 -78.416245 
L 233.857958 -78.416245 
L 235.942972 -78.416245 
L 238.027986 -78.416245 
L 240.113 -78.416245 
L 242.198014 -78.416245 
L 244.283028 -78.416245 
L 246.368042 -78.416245 
L 248.453056 -78.416245 
L 250.53807 -78.416245 
L 252.623084 -78.416245 
L 254.708098 -78.416245 
L 256.793112 -78.416245 
L 258.878126 -78.416245 
L 260.96314 -78.416245 
L 263.048154 -78.416245 
L 265.133168 -78.416245 
L 267.218182 -78.416245 
L 269.303196 -78.416245 
L 271.38821 -78.416245 
L 273.473224 -78.416245 
L 275.558238 -78.416245 
L 277.643252 -78.416245 
L 279.728266 -78.416245 
L 281.81328 -78.416245 
L 283.898294 -78.416245 
L 285.983307 -78.416245 
L 288.068321 -78.416245 
L 290.153335 -78.416245 
L 292.238349 -78.416245 
L 294.323363 -78.416245 
L 296.408377 -78.416245 
L 298.493391 -78.416245 
L 300.578405 -78.416245 
L 302.663419 -78.416245 
L 304.748433 -78.416245 
L 306.833447 -78.416245 
L 308.918461 -78.416245 
L 311.003475 -78.416245 
L 313.088489 -78.416245 
L 315.173503 -78.416245 
L 317.258517 -78.416245 
L 319.343531 -78.416245 
L 321.428545 -78.416245 
L 323.513559 -78.416245 
L 325.598573 -78.416245 
L 327.683587 -78.416245 
L 329.768601 -78.416245 
L 329.768601 -41.76 
L 329.768601 -41.76 
L 327.683587 -41.76 
L 325.598573 -41.76 
L 323.513559 -41.76 
L 321.428545 -41.76 
L 319.343531 -41.76 
L 317.258517 -41.76 
L 315.173503 -41.76 
L 313.088489 -41.76 
L 311.003475 -41.76 
L 308.918461 -41.76 
L 306.833447 -41.76 
L 304.748433 -41.76 
L 302.663419 -41.76 
L 300.578405 -41.76 
L 298.493391 -41.76 
L 296.408377 -41.76 
L 294.323363 -41.76 
L 292.238349 -41.76 
L 290.153335 -41.76 
L 288.068321 -41.76 
L 285.983307 -41.76 
L 283.898294 -41.76 
L 281.81328 -41.76 
L 279.728266 -41.76 
L 277.643252 -41.76 
L 275.558238 -41.76 
L 273.473224 -41.76 
L 271.38821 -41.76 
L 269.303196 -41.76 
L 267.218182 -41.76 
L 265.133168 -41.76 
L 263.048154 -41.76 
L 260.96314 -41.76 
L 258.878126 -41.76 
L 256.793112 -41.76 
L 254.708098 -41.76 
L 252.623084 -41.76 
L 250.53807 -41.76 
L 248.453056 -41.76 
L 246.368042 -41.76 
L 244.283028 -41.76 
L 242.198014 -41.76 
L 240.113 -41.76 
L 238.027986 -41.76 
L 235.942972 -41.76 
L 233.857958 -41.76 
L 231.772944 -41.76 
L 229.68793 -41.76 
L 227.602917 -41.76 
L 225.517903 -41.76 
L 223.432889 -41.76 
L 221.347875 -41.76 
L 219.262861 -41.76 
L 217.177847 -41.76 
L 215.092833 -41.76 
L 213.007819 -41.76 
L 210.922805 -41.76 
L 208.837791 -41.76 
L 206.752777 -41.76 
L 204.667763 -41.76 
L 202.582749 -41.76 
L 200.497735 -41.76 
L 198.412721 -41.76 
L 196.327707 -41.76 
L 194.242693 -41.76 
L 192.157679 -41.76 
L 190.072665 -41.76 
L 187.987651 -41.76 
L 185.902637 -41.76 
L 183.817623 -41.76 
L 181.732609 -41.76 
L 179.647595 -41.76 
L 177.562581 -41.76 
L 175.477567 -41.76 
L 173.392554 -41.76 
L 171.30754 -41.76 
L 169.222526 -41.76 
L 167.137512 -41.76 
L 165.052498 -41.76 
L 162.967484 -41.76 
L 160.88247 -41.76 
L 158.797456 -41.76 
L 156.712442 -41.76 
L 154.627428 -41.76 
L 152.542414 -41.76 
L 150.4574 -41.76 
L 148.372386 -41.76 
L 146.287372 -41.76 
L 144.202358 -41.76 
L 142.117344 -41.76 
L 140.03233 -41.76 
L 137.947316 -41.76 
L 135.862302 -41.76 
L 133.777288 -41.76 
L 131.692274 -41.76 
L 129.60726 -41.76 
L 127.522246 -41.76 
L 125.437232 -41.76 
L 123.352218 -41.76 
z
" style="stroke: #0066cc"/>
    </defs>
    <g clip-path="url(#pe1d86a2deb)">
     <use xlink:href="#m893e465535" x="0" y="288" style="fill: #0066cc; stroke: #0066cc"/>
    </g>
   </g>
   <g id="line2d_1">
    <path d="M 70.2 81.286896 
L 372.6 81.286896 
" clip-path="url(#pe1d86a2deb)" style="fill: none; stroke: #0066cc; stroke-width: 1.5; stroke-linecap: square"/>
   </g>
   <g id="line2d_2">
    <path d="M 70.2 136.271264 
L 372.6 136.271264 
" clip-path="url(#pe1d86a2deb)" style="fill: none; stroke: #0066cc; stroke-width: 1.5; stroke-linecap: square"/>
   </g>
   <g id="line2d_3">
    <path d="M 70.2 191.255632 
L 372.6 191.255632 
" clip-path="url(#pe1d86a2deb)" style="fill: none; stroke: #0066cc; stroke-width: 1.5; stroke-linecap: square"/>
   </g>
   <g id="line2d_4">
    <path d="M 70.2 246.24 
L 372.6 246.24 
" clip-path="url(#pe1d86a2deb)" style="fill: none; stroke: #0066cc; stroke-width: 1.5; stroke-linecap: square"/>
   </g>
   <g id="text_1">
    <!-- drive -->
    <g transform="translate(70.2 78.791271) scale(0.12 -0.12)">
     <defs>
      <path id="DejaVuSans-64" d="M 2906 2969 
L 2906 4863 
L 3481 4863 
L 3481 0 
L 2906 0 
L 2906 525 
Q 2725 213 2448 61 
Q 2172 -91 1784 -91 
Q 1150 -91 751 415 
Q 353 922 353 1747 
Q 353 2572 751 3078 
Q 1150 3584 1784 3584 
Q 2172 3584 2448 3432 
Q 2725 3281 2906 2969 
z
M 947 1747 
Q 947 1113 1208 752 
Q 1469 391 1925 391 
Q 2381 391 2643 752 
Q 2906 1113 2906 1747 
Q 2906 2381 2643 2742 
Q 2381 3103 1925 3103 
Q 1469 3103 1208 2742 
Q 947 2381 947 1747 
z
" transform="scale(0.015625)"/>
      <path id="DejaVuSans-72" d="M 2631 2963 
Q 2534 3019 2420 3045 
Q 2306 3072 2169 3072 
Q 1681 3072 1420 2755 
Q 1159 2438 1159 1844 
L 1159 0 
L 581 0 
L 581 3500 
L 1159 3500 
L 1159 2956 
Q 1341 3275 1631 3429 
Q 1922 3584 2338 3584 
Q 2397 3584 2469 3576 
Q 2541 3569 2628 3553 
L 2631 2963 
z
" transform="scale(0.015625)"/>
      <path id="DejaVuSans-69" d="M 603 3500 
L 1178 3500 
L 1178 0 
L 603 0 
L 603 3500 
z
M 603 4863 
L 1178 4863 
L 1178 4134 
L 603 4134 
L 603 4863 
z
" transform="scale(0.015625)"/>
      <path id="DejaVuSans-76" d="M 191 3500 
L 800 3500 
L 1894 563 
L 2988 3500 
L 3597 3500 
L 2284 0 
L 1503 0 
L 191 3500 
z
" transform="scale(0.015625)"/>
      <path id="DejaVuSans-65" d="M 3597 1894 
L 3597 1613 
L 953 1613 
Q 991 1019 1311 708 
Q 1631 397 2203 397 
Q 2534 397 2845 478 
Q 3156 559 3463 722 
L 3463 178 
Q 3153 47 2828 -22 
Q 2503 -91 2169 -91 
Q 1331 -91 842 396 
Q 353 884 353 1716 
Q 353 2575 817 3079 
Q 1281 3584 2069 3584 
Q 2775 3584 3186 3129 
Q 3597 2675 3597 1894 
z
M 3022 2063 
Q 3016 2534 2758 2815 
Q 2500 3097 2075 3097 
Q 1594 3097 1305 2825 
Q 1016 2553 972 2059 
L 3022 2063 
z
" transform="scale(0.015625)"/>
     </defs>
     <use xlink:href="#DejaVuSans-64"/>
     <use xlink:href="#DejaVuSans-72" x="63.476562"/>
     <use xlink:href="#DejaVuSans-69" x="104.589844"/>
     <use xlink:href="#DejaVuSans-76" x="132.373047"/>
     <use xlink:href="#DejaVuSans-65" x="191.552734"/>
    </g>
   </g>
   <g id="patch_2">
    <path d="M 298.806143 44.630651 
Q 298.806143 44.630651 298.806143 44.630651 
" style="fill: none; stroke: #000000; stroke-linecap: round"/>
   </g>
   <g id="text_2">
    <!--  -->
    <g transform="translate(295.795987 42.550964) scale(0.1 -0.1)">
     <defs>
      <path id="DejaVuSans-3c0" d="M 231 3500 
L 3584 3500 
L 3584 2925 
L 3144 2925 
L 3144 775 
Q 3144 550 3220 451 
Q 3297 353 3469 353 
Q 3516 353 3584 361 
Q 3653 369 3675 372 
L 3675 -44 
Q 3566 -84 3450 -103 
Q 3334 -122 3219 -122 
Q 2844 -122 2700 83 
Q 2556 288 2556 838 
L 2556 2925 
L 1266 2925 
L 1266 0 
L 678 0 
L 678 2925 
L 231 2925 
L 231 3500 
z
" transform="scale(0.015625)"/>
     </defs>
     <use xlink:href="#DejaVuSans-3c0"/>
    </g>
   </g>
   <g id="text_3">
    <!-- readout -->
    <g transform="translate(70.2 133.775639) scale(0.12 -0.12)">
     <defs>
      <path id="DejaVuSans-61" d="M 2194 1759 
Q 1497 1759 1228 1600 
Q 959 1441 959 1056 
Q 959 750 1161 570 
Q 1363 391 1709 391 
Q 2188 391 2477 730 
Q 2766 1069 2766 1631 
L 2766 1759 
L 2194 1759 
z
M 3341 1997 
L 3341 0 
L 2766 0 
L 2766 531 
Q 2569 213 2275 61 
Q 1981 -91 1556 -91 
Q 1019 -91 701 211 
Q 384 513 384 1019 
Q 384 1609 779 1909 
Q 1175 2209 1959 2209 
L 2766 2209 
L 2766 2266 
Q 2766 2663 2505 2880 
Q 2244 3097 1772 3097 
Q 1472 3097 1187 3025 
Q 903 2953 641 2809 
L 641 3341 
Q 956 3463 1253 3523 
Q 1550 3584 1831 3584 
Q 2591 3584 2966 3190 
Q 3341 2797 3341 1997 
z
" transform="scale(0.015625)"/>
      <path id="DejaVuSans-6f" d="M 1959 3097 
Q 1497 3097 1228 2736 
Q 959 2375 959 1747 
Q 959 1119 1226 758 
Q 1494 397 1959 397 
Q 2419 397 2687 759 
Q 2956 1122 2956 1747 
Q 2956 2369 2687 2733 
Q 2419 3097 1959 3097 
z
M 1959 3584 
Q 2709 3584 3137 3096 
Q 3566 2609 3566 1747 
Q 3566 888 3137 398 
Q 2709 -91 1959 -91 
Q 1206 -91 779 398 
Q 353 888 353 1747 
Q 353 2609 779 3096 
Q 1206 3584 1959 3584 
z
" transform="scale(0.015625)"/>
      <path id="DejaVuSans-75" d="M 544 1381 
L 544 3500 
L 1119 3500 
L 1119 1403 
Q 1119 906 1312 657 
Q 1506 409 1894 409 
Q 2359 409 2629 706 
Q 2900 1003 2900 1516 
L 2900 3500 
L 3475 3500 
L 3475 0 
L 2900 0 
L 2900 538 
Q 2691 219 2414 64 
Q 2138 -91 1772 -91 
Q 1169 -91 856 284 
Q 544 659 544 1381 
z
M 1991 3584 
L 1991 3584 
z
" transform="scale(0.015625)"/>
      <path id="DejaVuSans-74" d="M 1172 4494 
L 1172 3500 
L 2356 3500 
L 2356 3053 
L 1172 3053 
L 1172 1153 
Q 1172 725 1289 603 
Q 1406 481 1766 481 
L 2356 481 
L 2356 0 
L 1766 0 
Q 1100 0 847 248 
Q 594 497 594 1153 
L 594 3053 
L 172 3053 
L 172 3500 
L 594 3500 
L 594 4494 
L 1172 4494 
z
" transform="scale(0.015625)"/>
     </defs>
     <use xlink:href="#DejaVuSans-72"/>
     <use xlink:href="#DejaVuSans-65" x="38.863281"/>
     <use xlink:href="#DejaVuSans-61" x="100.386719"/>
     <use xlink:href="#DejaVuSans-64" x="161.666016"/>
     <use xlink:href="#DejaVuSans-6f" x="225.142578"/>
     <use xlink:href="#DejaVuSans-75" x="286.324219"/>
     <use xlink:href="#DejaVuSans-74" x="349.703125"/>
    </g>
   </g>
   <g id="text_4">
    <!-- flux -->
    <g transform="translate(70.2 188.760007) scale(0.12 -0.12)">
     <defs>
      <path id="DejaVuSans-66" d="M 2375 4863 
L 2375 4384 
L 1825 4384 
Q 1516 4384 1395 4259 
Q 1275 4134 1275 3809 
L 1275 3500 
L 2222 3500 
L 2222 3053 
L 1275 3053 
L 1275 0 
L 697 0 
L 697 3053 
L 147 3053 
L 147 3500 
L 697 3500 
L 697 3744 
Q 697 4328 969 4595 
Q 1241 4863 1831 4863 
L 2375 4863 
z
" transform="scale(0.015625)"/>
      <path id="DejaVuSans-6c" d="M 603 4863 
L 1178 4863 
L 1178 0 
L 603 0 
L 603 4863 
z
" transform="scale(0.015625)"/>
      <path id="DejaVuSans-78" d="M 3513 3500 
L 2247 1797 
L 3578 0 
L 2900 0 
L 1881 1375 
L 863 0 
L 184 0 
L 1544 1831 
L 300 3500 
L 978 3500 
L 1906 2253 
L 2834 3500 
L 3513 3500 
z
" transform="scale(0.015625)"/>
     </defs>
     <use xlink:href="#DejaVuSans-66"/>
     <use xlink:href="#DejaVuSans-6c" x="35.205078"/>
     <use xlink:href="#DejaVuSans-75" x="62.988281"/>
     <use xlink:href="#DejaVuSans-78" x="126.367188"/>
    </g>
   </g>
   <g id="patch_3">
    <path d="M 200.758362 157.717585 
Q 200.758362 172.927083 200.758362 188.136582 
" style="fill: none; stroke: #000000; stroke-linecap: round"/>
    <path d="M 198.758362 161.717585 
L 200.758362 157.717585 
L 202.758362 161.717585 
" style="fill: none; stroke: #000000; stroke-linecap: round"/>
    <path d="M 202.758362 184.136582 
L 200.758362 188.136582 
L 198.758362 184.136582 
" style="fill: none; stroke: #000000; stroke-linecap: round"/>
   </g>
   <g id="patch_4">
    <path d="M 200.758362 172.927509 
Q 200.758362 172.927509 200.758362 172.927509 
" style="fill: none; stroke: #000000; stroke-linecap: round"/>
   </g>
   <g id="text_5">
    <!--   -->
    <g transform="translate(200.758362 175.686884) scale(0.1 -0.1)">
     <defs>
      <path id="DejaVuSans-20" transform="scale(0.015625)"/>
      <path id="DejaVuSans-394" d="M 2188 4044 
L 906 525 
L 3472 525 
L 2188 4044 
z
M 50 0 
L 1831 4666 
L 2547 4666 
L 4325 0 
L 50 0 
z
" transform="scale(0.015625)"/>
      <path id="DejaVuSans-1d69" d="M 1631 1676 
Q 1503 1676 1503 1422 
L 1503 219 
Q 1694 219 1878 401 
Q 2047 566 2047 957 
Q 2047 1319 1875 1516 
Q 1734 1676 1631 1676 
z
M 1631 1951 
Q 1906 1951 2159 1719 
Q 2428 1472 2428 957 
Q 2428 482 2159 201 
Q 1906 -65 1503 -65 
L 1503 -771 
L 1144 -771 
L 1144 -68 
Q 750 -68 491 197 
Q 222 472 222 954 
Q 222 1454 491 1710 
Q 691 1901 1016 1951 
L 1016 1663 
Q 888 1626 772 1488 
Q 603 1285 603 954 
Q 603 601 772 401 
Q 925 219 1144 219 
L 1144 1422 
Q 1144 1951 1631 1951 
z
" transform="scale(0.015625)"/>
     </defs>
     <use xlink:href="#DejaVuSans-20"/>
     <use xlink:href="#DejaVuSans-394" x="31.787109"/>
     <use xlink:href="#DejaVuSans-1d69" x="100.195312"/>
    </g>
   </g>
   <g id="text_6">
    <!-- reset -->
    <g transform="translate(70.2 243.744375) scale(0.12 -0.12)">
     <defs>
      <path id="DejaVuSans-73" d="M 2834 3397 
L 2834 2853 
Q 2591 2978 2328 3040 
Q 2066 3103 1784 3103 
Q 1356 3103 1142 2972 
Q 928 2841 928 2578 
Q 928 2378 1081 2264 
Q 1234 2150 1697 2047 
L 1894 2003 
Q 2506 1872 2764 1633 
Q 3022 1394 3022 966 
Q 3022 478 2636 193 
Q 2250 -91 1575 -91 
Q 1294 -91 989 -36 
Q 684 19 347 128 
L 347 722 
Q 666 556 975 473 
Q 1284 391 1588 391 
Q 1994 391 2212 530 
Q 2431 669 2431 922 
Q 2431 1156 2273 1281 
Q 2116 1406 1581 1522 
L 1381 1569 
Q 847 1681 609 1914 
Q 372 2147 372 2553 
Q 372 3047 722 3315 
Q 1072 3584 1716 3584 
Q 2034 3584 2315 3537 
Q 2597 3491 2834 3397 
z
" transform="scale(0.015625)"/>
     </defs>
     <use xlink:href="#DejaVuSans-72"/>
     <use xlink:href="#DejaVuSans-65" x="38.863281"/>
     <use xlink:href="#DejaVuSans-73" x="100.386719"/>
     <use xlink:href="#DejaVuSans-65" x="152.486328"/>
     <use xlink:href="#DejaVuSans-74" x="214.009766"/>
    </g>
   </g>
   <g id="patch_5">
    <path d="M 326.65053 234.143439 
Q 226.560077 234.143439 126.469625 234.143439 
" style="fill: none; stroke: #000000; stroke-linecap: round"/>
    <path d="M 322.65053 232.143439 
L 326.65053 234.143439 
L 322.65053 236.143439 
" style="fill: none; stroke: #000000; stroke-linecap: round"/>
    <path d="M 130.469625 236.143439 
L 126.469625 234.143439 
L 130.469625 232.143439 
" style="fill: none; stroke: #000000; stroke-linecap: round"/>
   </g>
   <g id="patch_6">
    <path d="M 226.56041 234.143439 
Q 226.56041 234.143439 226.56041 234.143439 
" style="fill: none; stroke: #000000; stroke-linecap: round"/>
   </g>
   <g id="text_7">
    <!-- 10s -->
    <g transform="translate(214.411972 232.063752) scale(0.1 -0.1)">
     <defs>
      <path id="DejaVuSans-31" d="M 794 531 
L 1825 531 
L 1825 4091 
L 703 3866 
L 703 4441 
L 1819 4666 
L 2450 4666 
L 2450 531 
L 3481 531 
L 3481 0 
L 794 0 
L 794 531 
z
" transform="scale(0.015625)"/>
      <path id="DejaVuSans-30" d="M 2034 4250 
Q 1547 4250 1301 3770 
Q 1056 3291 1056 2328 
Q 1056 1369 1301 889 
Q 1547 409 2034 409 
Q 2525 409 2770 889 
Q 3016 1369 3016 2328 
Q 3016 3291 2770 3770 
Q 2525 4250 2034 4250 
z
M 2034 4750 
Q 2819 4750 3233 4129 
Q 3647 3509 3647 2328 
Q 3647 1150 3233 529 
Q 2819 -91 2034 -91 
Q 1250 -91 836 529 
Q 422 1150 422 2328 
Q 422 3509 836 4129 
Q 1250 4750 2034 4750 
z
" transform="scale(0.015625)"/>
      <path id="DejaVuSans-3bc" d="M 544 -1331 
L 544 3500 
L 1119 3500 
L 1119 1325 
Q 1119 872 1334 640 
Q 1550 409 1972 409 
Q 2434 409 2667 671 
Q 2900 934 2900 1459 
L 2900 3500 
L 3475 3500 
L 3475 806 
Q 3475 619 3529 530 
Q 3584 441 3700 441 
Q 3728 441 3778 458 
Q 3828 475 3916 513 
L 3916 50 
Q 3788 -22 3673 -56 
Q 3559 -91 3450 -91 
Q 3234 -91 3106 31 
Q 2978 153 2931 403 
Q 2775 156 2548 32 
Q 2322 -91 2016 -91 
Q 1697 -91 1473 31 
Q 1250 153 1119 397 
L 1119 -1331 
L 544 -1331 
z
" transform="scale(0.015625)"/>
     </defs>
     <use xlink:href="#DejaVuSans-31"/>
     <use xlink:href="#DejaVuSans-30" x="63.623047"/>
     <use xlink:href="#DejaVuSans-3bc" x="127.246094"/>
     <use xlink:href="#DejaVuSans-73" x="190.869141"/>
    </g>
   </g>
  </g>
 </g>
 <defs>
  <clipPath id="pe1d86a2deb">
   <rect x="55.08" y="34.56" width="332.64" height="221.76"/>
  </clipPath>
 </defs>
</svg>
