<?xml version="1.0" encoding="utf-8" standalone="no"?>
<!DOCTYPE svg PUBLIC "-//W3C//DTD SVG 1.1//EN"
  "http://www.w3.org/Graphics/SVG/1.1/DTD/svg11.dtd">
<svg xmlns:xlink="http://www.w3.org/1999/xlink" width="460.8pt" height="345.6pt" viewBox="0 0 460.8 345.6" xmlns="http://www.w3.org/2000/svg" version="1.1">
 <metadata>
  <rdf:RDF xmlns:dc="http://purl.org/dc/elements/1.1/" xmlns:cc="http://creativecommons.org/ns#" xmlns:rdf="http://www.w3.org/1999/02/22-rdf-syntax-ns#">
   <cc:Work>
    <dc:type rdf:resource="http://purl.org/dc/dcmitype/StillImage"/>
    <dc:date>2024-08-11T12:18:42.801050</dc:date>
    <dc:format>image/svg+xml</dc:format>
    <dc:creator>
     <cc:Agent>
      <dc:title>Matplotlib v3.7.1, https://matplotlib.org/</dc:title>
     </cc:Agent>
    </dc:creator>
   </cc:Work>
  </rdf:RDF>
 </metadata>
 <defs>
  <style type="text/css">*{stroke-linejoin: round; stroke-linecap: butt}</style>
 </defs>
 <g id="figure_1">
  <g id="patch_1">
   <path d="M 0 345.6 
L 460.8 345.6 
L 460.8 0 
L 0 0 
z
" style="fill: #ffffff"/>
  </g>
  <g id="axes_1">
   <g id="PolyCollection_1">
    <defs>
     <path id="me61bc4e3eb" d="M 124.210157 -181.893818 
L 124.210157 -225.181091 
L 124.587092 -225.181091 
L 124.964028 -225.181091 
L 125.340963 -225.181091 
L 125.717899 -225.181091 
L 126.094834 -225.181091 
L 126.47177 -225.181091 
L 126.848705 -225.181091 
L 127.225641 -225.181091 
L 127.602576 -225.181091 
L 127.979512 -225.181091 
L 128.356447 -225.181091 
L 128.733383 -225.181091 
L 129.110318 -225.181091 
L 129.487254 -225.181091 
L 129.864189 -225.181091 
L 130.241125 -225.181091 
L 130.61806 -225.181091 
L 130.994996 -225.181091 
L 131.371931 -225.181091 
L 131.748867 -225.181091 
L 132.125802 -225.181091 
L 132.502738 -225.181091 
L 132.879673 -225.181091 
L 133.256609 -225.181091 
L 133.633544 -225.181091 
L 134.01048 -225.181091 
L 134.387415 -225.181091 
L 134.764351 -225.181091 
L 135.141286 -225.181091 
L 135.518222 -225.181091 
L 135.895157 -225.181091 
L 136.272093 -225.181091 
L 136.649028 -225.181091 
L 137.025964 -225.181091 
L 137.402899 -225.181091 
L 137.779835 -225.181091 
L 138.15677 -225.181091 
L 138.533706 -225.181091 
L 138.910641 -225.181091 
L 139.287577 -225.181091 
L 139.664512 -225.181091 
L 140.041448 -225.181091 
L 140.418383 -225.181091 
L 140.795319 -225.181091 
L 141.172254 -225.181091 
L 141.54919 -225.181091 
L 141.926125 -225.181091 
L 142.303061 -225.181091 
L 142.679996 -225.181091 
L 143.056932 -225.181091 
L 143.433867 -225.181091 
L 143.810803 -225.181091 
L 144.187738 -225.181091 
L 144.564674 -225.181091 
L 144.941609 -225.181091 
L 145.318545 -225.181091 
L 145.69548 -225.181091 
L 146.072416 -225.181091 
L 146.449351 -225.181091 
L 146.826287 -225.181091 
L 147.203222 -225.181091 
L 147.580158 -225.181091 
L 147.957093 -225.181091 
L 148.334029 -225.181091 
L 148.710964 -225.181091 
L 149.0879 -225.181091 
L 149.464835 -225.181091 
L 149.841771 -225.181091 
L 150.218706 -225.181091 
L 150.595642 -225.181091 
L 150.972577 -225.181091 
L 151.349513 -225.181091 
L 151.726448 -225.181091 
L 152.103384 -225.181091 
L 152.480319 -225.181091 
L 152.857255 -225.181091 
L 153.23419 -225.181091 
L 153.611126 -225.181091 
L 153.988061 -225.181091 
L 154.364997 -225.181091 
L 154.741932 -225.181091 
L 155.118868 -225.181091 
L 155.495803 -225.181091 
L 155.872739 -225.181091 
L 156.249674 -225.181091 
L 156.62661 -225.181091 
L 157.003545 -225.181091 
L 157.380481 -225.181091 
L 157.757416 -225.181091 
L 158.134352 -225.181091 
L 158.511287 -225.181091 
L 158.888223 -225.181091 
L 159.265158 -225.181091 
L 159.642094 -225.181091 
L 160.019029 -225.181091 
L 160.395965 -225.181091 
L 160.7729 -225.181091 
L 161.149836 -225.181091 
L 161.526771 -225.181091 
L 161.526771 -181.893818 
L 161.526771 -181.893818 
L 161.149836 -181.893818 
L 160.7729 -181.893818 
L 160.395965 -181.893818 
L 160.019029 -181.893818 
L 159.642094 -181.893818 
L 159.265158 -181.893818 
L 158.888223 -181.893818 
L 158.511287 -181.893818 
L 158.134352 -181.893818 
L 157.757416 -181.893818 
L 157.380481 -181.893818 
L 157.003545 -181.893818 
L 156.62661 -181.893818 
L 156.249674 -181.893818 
L 155.872739 -181.893818 
L 155.495803 -181.893818 
L 155.118868 -181.893818 
L 154.741932 -181.893818 
L 154.364997 -181.893818 
L 153.988061 -181.893818 
L 153.611126 -181.893818 
L 153.23419 -181.893818 
L 152.857255 -181.893818 
L 152.480319 -181.893818 
L 152.103384 -181.893818 
L 151.726448 -181.893818 
L 151.349513 -181.893818 
L 150.972577 -181.893818 
L 150.595642 -181.893818 
L 150.218706 -181.893818 
L 149.841771 -181.893818 
L 149.464835 -181.893818 
L 149.0879 -181.893818 
L 148.710964 -181.893818 
L 148.334029 -181.893818 
L 147.957093 -181.893818 
L 147.580158 -181.893818 
L 147.203222 -181.893818 
L 146.826287 -181.893818 
L 146.449351 -181.893818 
L 146.072416 -181.893818 
L 145.69548 -181.893818 
L 145.318545 -181.893818 
L 144.941609 -181.893818 
L 144.564674 -181.893818 
L 144.187738 -181.893818 
L 143.810803 -181.893818 
L 143.433867 -181.893818 
L 143.056932 -181.893818 
L 142.679996 -181.893818 
L 142.303061 -181.893818 
L 141.926125 -181.893818 
L 141.54919 -181.893818 
L 141.172254 -181.893818 
L 140.795319 -181.893818 
L 140.418383 -181.893818 
L 140.041448 -181.893818 
L 139.664512 -181.893818 
L 139.287577 -181.893818 
L 138.910641 -181.893818 
L 138.533706 -181.893818 
L 138.15677 -181.893818 
L 137.779835 -181.893818 
L 137.402899 -181.893818 
L 137.025964 -181.893818 
L 136.649028 -181.893818 
L 136.272093 -181.893818 
L 135.895157 -181.893818 
L 135.518222 -181.893818 
L 135.141286 -181.893818 
L 134.764351 -181.893818 
L 134.387415 -181.893818 
L 134.01048 -181.893818 
L 133.633544 -181.893818 
L 133.256609 -181.893818 
L 132.879673 -181.893818 
L 132.502738 -181.893818 
L 132.125802 -181.893818 
L 131.748867 -181.893818 
L 131.371931 -181.893818 
L 130.994996 -181.893818 
L 130.61806 -181.893818 
L 130.241125 -181.893818 
L 129.864189 -181.893818 
L 129.487254 -181.893818 
L 129.110318 -181.893818 
L 128.733383 -181.893818 
L 128.356447 -181.893818 
L 127.979512 -181.893818 
L 127.602576 -181.893818 
L 127.225641 -181.893818 
L 126.848705 -181.893818 
L 126.47177 -181.893818 
L 126.094834 -181.893818 
L 125.717899 -181.893818 
L 125.340963 -181.893818 
L 124.964028 -181.893818 
L 124.587092 -181.893818 
L 124.210157 -181.893818 
z
" style="stroke: #0066cc"/>
    </defs>
    <g clip-path="url(#pc0233506fd)">
     <use xlink:href="#me61bc4e3eb" x="0" y="345.6" style="fill: #0066cc; stroke: #0066cc"/>
    </g>
   </g>
   <g id="PolyCollection_2">
    <defs>
     <path id="m9e3582c445" d="M 198.843386 -181.893818 
L 198.843386 -225.181091 
L 199.597257 -225.181091 
L 200.351128 -225.181091 
L 201.104999 -225.181091 
L 201.85887 -225.181091 
L 202.612741 -225.181091 
L 203.366612 -225.181091 
L 204.120483 -225.181091 
L 204.874354 -225.181091 
L 205.628225 -225.181091 
L 206.382096 -225.181091 
L 207.135967 -225.181091 
L 207.889838 -225.181091 
L 208.643709 -225.181091 
L 209.39758 -225.181091 
L 210.151451 -225.181091 
L 210.905322 -225.181091 
L 211.659193 -225.181091 
L 212.413064 -225.181091 
L 213.166935 -225.181091 
L 213.920806 -225.181091 
L 214.674677 -225.181091 
L 215.428548 -225.181091 
L 216.182419 -225.181091 
L 216.93629 -225.181091 
L 217.690161 -225.181091 
L 218.444032 -225.181091 
L 219.197903 -225.181091 
L 219.951774 -225.181091 
L 220.705645 -225.181091 
L 221.459516 -225.181091 
L 222.213387 -225.181091 
L 222.967258 -225.181091 
L 223.721129 -225.181091 
L 224.475 -225.181091 
L 225.228871 -225.181091 
L 225.982742 -225.181091 
L 226.736613 -225.181091 
L 227.490484 -225.181091 
L 228.244355 -225.181091 
L 228.998226 -225.181091 
L 229.752097 -225.181091 
L 230.505968 -225.181091 
L 231.259839 -225.181091 
L 232.01371 -225.181091 
L 232.767581 -225.181091 
L 233.521452 -225.181091 
L 234.275323 -225.181091 
L 235.029194 -225.181091 
L 235.783065 -225.181091 
L 236.536935 -225.181091 
L 237.290806 -225.181091 
L 238.044677 -225.181091 
L 238.798548 -225.181091 
L 239.552419 -225.181091 
L 240.30629 -225.181091 
L 241.060161 -225.181091 
L 241.814032 -225.181091 
L 242.567903 -225.181091 
L 243.321774 -225.181091 
L 244.075645 -225.181091 
L 244.829516 -225.181091 
L 245.583387 -225.181091 
L 246.337258 -225.181091 
L 247.091129 -225.181091 
L 247.845 -225.181091 
L 248.598871 -225.181091 
L 249.352742 -225.181091 
L 250.106613 -225.181091 
L 250.860484 -225.181091 
L 251.614355 -225.181091 
L 252.368226 -225.181091 
L 253.122097 -225.181091 
L 253.875968 -225.181091 
L 254.629839 -225.181091 
L 255.38371 -225.181091 
L 256.137581 -225.181091 
L 256.891452 -225.181091 
L 257.645323 -225.181091 
L 258.399194 -225.181091 
L 259.153065 -225.181091 
L 259.906936 -225.181091 
L 260.660807 -225.181091 
L 261.414678 -225.181091 
L 262.168549 -225.181091 
L 262.92242 -225.181091 
L 263.676291 -225.181091 
L 264.430162 -225.181091 
L 265.184033 -225.181091 
L 265.937904 -225.181091 
L 266.691775 -225.181091 
L 267.445646 -225.181091 
L 268.199517 -225.181091 
L 268.953388 -225.181091 
L 269.707259 -225.181091 
L 270.46113 -225.181091 
L 271.215001 -225.181091 
L 271.968872 -225.181091 
L 272.722743 -225.181091 
L 273.476614 -225.181091 
L 273.476614 -181.893818 
L 273.476614 -181.893818 
L 272.722743 -181.893818 
L 271.968872 -181.893818 
L 271.215001 -181.893818 
L 270.46113 -181.893818 
L 269.707259 -181.893818 
L 268.953388 -181.893818 
L 268.199517 -181.893818 
L 267.445646 -181.893818 
L 266.691775 -181.893818 
L 265.937904 -181.893818 
L 265.184033 -181.893818 
L 264.430162 -181.893818 
L 263.676291 -181.893818 
L 262.92242 -181.893818 
L 262.168549 -181.893818 
L 261.414678 -181.893818 
L 260.660807 -181.893818 
L 259.906936 -181.893818 
L 259.153065 -181.893818 
L 258.399194 -181.893818 
L 257.645323 -181.893818 
L 256.891452 -181.893818 
L 256.137581 -181.893818 
L 255.38371 -181.893818 
L 254.629839 -181.893818 
L 253.875968 -181.893818 
L 253.122097 -181.893818 
L 252.368226 -181.893818 
L 251.614355 -181.893818 
L 250.860484 -181.893818 
L 250.106613 -181.893818 
L 249.352742 -181.893818 
L 248.598871 -181.893818 
L 247.845 -181.893818 
L 247.091129 -181.893818 
L 246.337258 -181.893818 
L 245.583387 -181.893818 
L 244.829516 -181.893818 
L 244.075645 -181.893818 
L 243.321774 -181.893818 
L 242.567903 -181.893818 
L 241.814032 -181.893818 
L 241.060161 -181.893818 
L 240.30629 -181.893818 
L 239.552419 -181.893818 
L 238.798548 -181.893818 
L 238.044677 -181.893818 
L 237.290806 -181.893818 
L 236.536935 -181.893818 
L 235.783065 -181.893818 
L 235.029194 -181.893818 
L 234.275323 -181.893818 
L 233.521452 -181.893818 
L 232.767581 -181.893818 
L 232.01371 -181.893818 
L 231.259839 -181.893818 
L 230.505968 -181.893818 
L 229.752097 -181.893818 
L 228.998226 -181.893818 
L 228.244355 -181.893818 
L 227.490484 -181.893818 
L 226.736613 -181.893818 
L 225.982742 -181.893818 
L 225.228871 -181.893818 
L 224.475 -181.893818 
L 223.721129 -181.893818 
L 222.967258 -181.893818 
L 222.213387 -181.893818 
L 221.459516 -181.893818 
L 220.705645 -181.893818 
L 219.951774 -181.893818 
L 219.197903 -181.893818 
L 218.444032 -181.893818 
L 217.690161 -181.893818 
L 216.93629 -181.893818 
L 216.182419 -181.893818 
L 215.428548 -181.893818 
L 214.674677 -181.893818 
L 213.920806 -181.893818 
L 213.166935 -181.893818 
L 212.413064 -181.893818 
L 211.659193 -181.893818 
L 210.905322 -181.893818 
L 210.151451 -181.893818 
L 209.39758 -181.893818 
L 208.643709 -181.893818 
L 207.889838 -181.893818 
L 207.135967 -181.893818 
L 206.382096 -181.893818 
L 205.628225 -181.893818 
L 204.874354 -181.893818 
L 204.120483 -181.893818 
L 203.366612 -181.893818 
L 202.612741 -181.893818 
L 201.85887 -181.893818 
L 201.104999 -181.893818 
L 200.351128 -181.893818 
L 199.597257 -181.893818 
L 198.843386 -181.893818 
z
" style="stroke: #0066cc"/>
    </defs>
    <g clip-path="url(#pc0233506fd)">
     <use xlink:href="#m9e3582c445" x="0" y="345.6" style="fill: #0066cc; stroke: #0066cc"/>
    </g>
   </g>
   <g id="PolyCollection_3">
    <defs>
     <path id="m09451b3ae4" d="M 124.210157 -116.962909 
L 124.210157 -160.250182 
L 124.964028 -160.250182 
L 125.717899 -160.250182 
L 126.47177 -160.250182 
L 127.225641 -160.250182 
L 127.979512 -160.250182 
L 128.733383 -160.250182 
L 129.487254 -160.250182 
L 130.241125 -160.250182 
L 130.994996 -160.250182 
L 131.748867 -160.250182 
L 132.502738 -160.250182 
L 133.256609 -160.250182 
L 134.01048 -160.250182 
L 134.764351 -160.250182 
L 135.518222 -160.250182 
L 136.272093 -160.250182 
L 137.025964 -160.250182 
L 137.779835 -160.250182 
L 138.533706 -160.250182 
L 139.287577 -160.250182 
L 140.041448 -160.250182 
L 140.795319 -160.250182 
L 141.54919 -160.250182 
L 142.303061 -160.250182 
L 143.056932 -160.250182 
L 143.810803 -160.250182 
L 144.564674 -160.250182 
L 145.318545 -160.250182 
L 146.072416 -160.250182 
L 146.826287 -160.250182 
L 147.580158 -160.250182 
L 148.334029 -160.250182 
L 149.0879 -160.250182 
L 149.841771 -160.250182 
L 150.595642 -160.250182 
L 151.349513 -160.250182 
L 152.103384 -160.250182 
L 152.857255 -160.250182 
L 153.611126 -160.250182 
L 154.364997 -160.250182 
L 155.118868 -160.250182 
L 155.872739 -160.250182 
L 156.62661 -160.250182 
L 157.380481 -160.250182 
L 158.134352 -160.250182 
L 158.888223 -160.250182 
L 159.642094 -160.250182 
L 160.395965 -160.250182 
L 161.149836 -160.250182 
L 161.903707 -160.250182 
L 162.657578 -160.250182 
L 163.411449 -160.250182 
L 164.16532 -160.250182 
L 164.919191 -160.250182 
L 165.673062 -160.250182 
L 166.426933 -160.250182 
L 167.180804 -160.250182 
L 167.934675 -160.250182 
L 168.688546 -160.250182 
L 169.442417 -160.250182 
L 170.196288 -160.250182 
L 170.950159 -160.250182 
L 171.70403 -160.250182 
L 172.457901 -160.250182 
L 173.211772 -160.250182 
L 173.965643 -160.250182 
L 174.719514 -160.250182 
L 175.473385 -160.250182 
L 176.227256 -160.250182 
L 176.981127 -160.250182 
L 177.734998 -160.250182 
L 178.488869 -160.250182 
L 179.24274 -160.250182 
L 179.996611 -160.250182 
L 180.750482 -160.250182 
L 181.504353 -160.250182 
L 182.258224 -160.250182 
L 183.012095 -160.250182 
L 183.765966 -160.250182 
L 184.519837 -160.250182 
L 185.273708 -160.250182 
L 186.027579 -160.250182 
L 186.78145 -160.250182 
L 187.535321 -160.250182 
L 188.289192 -160.250182 
L 189.043063 -160.250182 
L 189.796934 -160.250182 
L 190.550805 -160.250182 
L 191.304676 -160.250182 
L 192.058547 -160.250182 
L 192.812418 -160.250182 
L 193.566289 -160.250182 
L 194.32016 -160.250182 
L 195.074031 -160.250182 
L 195.827902 -160.250182 
L 196.581773 -160.250182 
L 197.335644 -160.250182 
L 198.089515 -160.250182 
L 198.843386 -160.250182 
L 198.843386 -116.962909 
L 198.843386 -116.962909 
L 198.089515 -116.962909 
L 197.335644 -116.962909 
L 196.581773 -116.962909 
L 195.827902 -116.962909 
L 195.074031 -116.962909 
L 194.32016 -116.962909 
L 193.566289 -116.962909 
L 192.812418 -116.962909 
L 192.058547 -116.962909 
L 191.304676 -116.962909 
L 190.550805 -116.962909 
L 189.796934 -116.962909 
L 189.043063 -116.962909 
L 188.289192 -116.962909 
L 187.535321 -116.962909 
L 186.78145 -116.962909 
L 186.027579 -116.962909 
L 185.273708 -116.962909 
L 184.519837 -116.962909 
L 183.765966 -116.962909 
L 183.012095 -116.962909 
L 182.258224 -116.962909 
L 181.504353 -116.962909 
L 180.750482 -116.962909 
L 179.996611 -116.962909 
L 179.24274 -116.962909 
L 178.488869 -116.962909 
L 177.734998 -116.962909 
L 176.981127 -116.962909 
L 176.227256 -116.962909 
L 175.473385 -116.962909 
L 174.719514 -116.962909 
L 173.965643 -116.962909 
L 173.211772 -116.962909 
L 172.457901 -116.962909 
L 171.70403 -116.962909 
L 170.950159 -116.962909 
L 170.196288 -116.962909 
L 169.442417 -116.962909 
L 168.688546 -116.962909 
L 167.934675 -116.962909 
L 167.180804 -116.962909 
L 166.426933 -116.962909 
L 165.673062 -116.962909 
L 164.919191 -116.962909 
L 164.16532 -116.962909 
L 163.411449 -116.962909 
L 162.657578 -116.962909 
L 161.903707 -116.962909 
L 161.149836 -116.962909 
L 160.395965 -116.962909 
L 159.642094 -116.962909 
L 158.888223 -116.962909 
L 158.134352 -116.962909 
L 157.380481 -116.962909 
L 156.62661 -116.962909 
L 155.872739 -116.962909 
L 155.118868 -116.962909 
L 154.364997 -116.962909 
L 153.611126 -116.962909 
L 152.857255 -116.962909 
L 152.103384 -116.962909 
L 151.349513 -116.962909 
L 150.595642 -116.962909 
L 149.841771 -116.962909 
L 149.0879 -116.962909 
L 148.334029 -116.962909 
L 147.580158 -116.962909 
L 146.826287 -116.962909 
L 146.072416 -116.962909 
L 145.318545 -116.962909 
L 144.564674 -116.962909 
L 143.810803 -116.962909 
L 143.056932 -116.962909 
L 142.303061 -116.962909 
L 141.54919 -116.962909 
L 140.795319 -116.962909 
L 140.041448 -116.962909 
L 139.287577 -116.962909 
L 138.533706 -116.962909 
L 137.779835 -116.962909 
L 137.025964 -116.962909 
L 136.272093 -116.962909 
L 135.518222 -116.962909 
L 134.764351 -116.962909 
L 134.01048 -116.962909 
L 133.256609 -116.962909 
L 132.502738 -116.962909 
L 131.748867 -116.962909 
L 130.994996 -116.962909 
L 130.241125 -116.962909 
L 129.487254 -116.962909 
L 128.733383 -116.962909 
L 127.979512 -116.962909 
L 127.225641 -116.962909 
L 126.47177 -116.962909 
L 125.717899 -116.962909 
L 124.964028 -116.962909 
L 124.210157 -116.962909 
z
" style="stroke: #ffcc00"/>
    </defs>
    <g clip-path="url(#pc0233506fd)">
     <use xlink:href="#m09451b3ae4" x="0" y="345.6" style="fill: #ffcc00; stroke: #ffcc00"/>
    </g>
   </g>
   <g id="PolyCollection_4">
    <defs>
     <path id="mc9078545c7" d="M 236.16 -116.962909 
L 236.16 -160.250182 
L 237.667742 -160.250182 
L 239.175484 -160.250182 
L 240.683226 -160.250182 
L 242.190968 -160.250182 
L 243.69871 -160.250182 
L 245.206452 -160.250182 
L 246.714194 -160.250182 
L 248.221936 -160.250182 
L 249.729678 -160.250182 
L 251.23742 -160.250182 
L 252.745162 -160.250182 
L 254.252904 -160.250182 
L 255.760646 -160.250182 
L 257.268388 -160.250182 
L 258.77613 -160.250182 
L 260.283872 -160.250182 
L 261.791614 -160.250182 
L 263.299356 -160.250182 
L 264.807098 -160.250182 
L 266.31484 -160.250182 
L 267.822582 -160.250182 
L 269.330324 -160.250182 
L 270.838066 -160.250182 
L 272.345808 -160.250182 
L 273.85355 -160.250182 
L 275.361292 -160.250182 
L 276.869034 -160.250182 
L 278.376776 -160.250182 
L 279.884518 -160.250182 
L 281.39226 -160.250182 
L 282.900002 -160.250182 
L 284.407744 -160.250182 
L 285.915486 -160.250182 
L 287.423228 -160.250182 
L 288.93097 -160.250182 
L 290.438712 -160.250182 
L 291.946454 -160.250182 
L 293.454196 -160.250182 
L 294.961938 -160.250182 
L 296.46968 -160.250182 
L 297.977422 -160.250182 
L 299.485164 -160.250182 
L 300.992906 -160.250182 
L 302.500648 -160.250182 
L 304.00839 -160.250182 
L 305.516132 -160.250182 
L 307.023874 -160.250182 
L 308.531616 -160.250182 
L 310.039358 -160.250182 
L 311.5471 -160.250182 
L 313.054842 -160.250182 
L 314.562584 -160.250182 
L 316.070326 -160.250182 
L 317.578068 -160.250182 
L 319.08581 -160.250182 
L 320.593552 -160.250182 
L 322.101294 -160.250182 
L 323.609036 -160.250182 
L 325.116778 -160.250182 
L 326.62452 -160.250182 
L 328.132262 -160.250182 
L 329.640004 -160.250182 
L 331.147746 -160.250182 
L 332.655488 -160.250182 
L 334.16323 -160.250182 
L 335.670972 -160.250182 
L 337.178714 -160.250182 
L 338.686456 -160.250182 
L 340.194198 -160.250182 
L 341.70194 -160.250182 
L 343.209682 -160.250182 
L 344.717424 -160.250182 
L 346.225166 -160.250182 
L 347.732908 -160.250182 
L 349.24065 -160.250182 
L 350.748392 -160.250182 
L 352.256134 -160.250182 
L 353.763876 -160.250182 
L 355.271618 -160.250182 
L 356.77936 -160.250182 
L 358.287102 -160.250182 
L 359.794844 -160.250182 
L 361.302586 -160.250182 
L 362.810328 -160.250182 
L 364.31807 -160.250182 
L 365.825812 -160.250182 
L 367.333554 -160.250182 
L 368.841296 -160.250182 
L 370.349038 -160.250182 
L 371.85678 -160.250182 
L 373.364522 -160.250182 
L 374.872264 -160.250182 
L 376.380006 -160.250182 
L 377.887748 -160.250182 
L 379.39549 -160.250182 
L 380.903232 -160.250182 
L 382.410974 -160.250182 
L 383.918716 -160.250182 
L 385.426458 -160.250182 
L 385.426458 -116.962909 
L 385.426458 -116.962909 
L 383.918716 -116.962909 
L 382.410974 -116.962909 
L 380.903232 -116.962909 
L 379.39549 -116.962909 
L 377.887748 -116.962909 
L 376.380006 -116.962909 
L 374.872264 -116.962909 
L 373.364522 -116.962909 
L 371.85678 -116.962909 
L 370.349038 -116.962909 
L 368.841296 -116.962909 
L 367.333554 -116.962909 
L 365.825812 -116.962909 
L 364.31807 -116.962909 
L 362.810328 -116.962909 
L 361.302586 -116.962909 
L 359.794844 -116.962909 
L 358.287102 -116.962909 
L 356.77936 -116.962909 
L 355.271618 -116.962909 
L 353.763876 -116.962909 
L 352.256134 -116.962909 
L 350.748392 -116.962909 
L 349.24065 -116.962909 
L 347.732908 -116.962909 
L 346.225166 -116.962909 
L 344.717424 -116.962909 
L 343.209682 -116.962909 
L 341.70194 -116.962909 
L 340.194198 -116.962909 
L 338.686456 -116.962909 
L 337.178714 -116.962909 
L 335.670972 -116.962909 
L 334.16323 -116.962909 
L 332.655488 -116.962909 
L 331.147746 -116.962909 
L 329.640004 -116.962909 
L 328.132262 -116.962909 
L 326.62452 -116.962909 
L 325.116778 -116.962909 
L 323.609036 -116.962909 
L 322.101294 -116.962909 
L 320.593552 -116.962909 
L 319.08581 -116.962909 
L 317.578068 -116.962909 
L 316.070326 -116.962909 
L 314.562584 -116.962909 
L 313.054842 -116.962909 
L 311.5471 -116.962909 
L 310.039358 -116.962909 
L 308.531616 -116.962909 
L 307.023874 -116.962909 
L 305.516132 -116.962909 
L 304.00839 -116.962909 
L 302.500648 -116.962909 
L 300.992906 -116.962909 
L 299.485164 -116.962909 
L 297.977422 -116.962909 
L 296.46968 -116.962909 
L 294.961938 -116.962909 
L 293.454196 -116.962909 
L 291.946454 -116.962909 
L 290.438712 -116.962909 
L 288.93097 -116.962909 
L 287.423228 -116.962909 
L 285.915486 -116.962909 
L 284.407744 -116.962909 
L 282.900002 -116.962909 
L 281.39226 -116.962909 
L 279.884518 -116.962909 
L 278.376776 -116.962909 
L 276.869034 -116.962909 
L 275.361292 -116.962909 
L 273.85355 -116.962909 
L 272.345808 -116.962909 
L 270.838066 -116.962909 
L 269.330324 -116.962909 
L 267.822582 -116.962909 
L 266.31484 -116.962909 
L 264.807098 -116.962909 
L 263.299356 -116.962909 
L 261.791614 -116.962909 
L 260.283872 -116.962909 
L 258.77613 -116.962909 
L 257.268388 -116.962909 
L 255.760646 -116.962909 
L 254.252904 -116.962909 
L 252.745162 -116.962909 
L 251.23742 -116.962909 
L 249.729678 -116.962909 
L 248.221936 -116.962909 
L 246.714194 -116.962909 
L 245.206452 -116.962909 
L 243.69871 -116.962909 
L 242.190968 -116.962909 
L 240.683226 -116.962909 
L 239.175484 -116.962909 
L 237.667742 -116.962909 
L 236.16 -116.962909 
z
" style="stroke: #ffcc00"/>
    </defs>
    <g clip-path="url(#pc0233506fd)">
     <use xlink:href="#mc9078545c7" x="0" y="345.6" style="fill: #ffcc00; stroke: #ffcc00"/>
    </g>
   </g>
   <g id="line2d_1">
    <path d="M 73.832727 163.706182 
L 398.487273 163.706182 
" clip-path="url(#pc0233506fd)" style="fill: none; stroke: #0066cc; stroke-width: 1.5; stroke-linecap: square"/>
   </g>
   <g id="line2d_2">
    <path d="M 73.832727 228.637091 
L 398.487273 228.637091 
" clip-path="url(#pc0233506fd)" style="fill: none; stroke: #ffcc00; stroke-width: 1.5; stroke-linecap: square"/>
   </g>
   <g id="text_1">
    <!-- line1 -->
    <g transform="translate(73.832727 161.210557) scale(0.12 -0.12)">
     <defs>
      <path id="DejaVuSans-6c" d="M 603 4863 
L 1178 4863 
L 1178 0 
L 603 0 
L 603 4863 
z
" transform="scale(0.015625)"/>
      <path id="DejaVuSans-69" d="M 603 3500 
L 1178 3500 
L 1178 0 
L 603 0 
L 603 3500 
z
M 603 4863 
L 1178 4863 
L 1178 4134 
L 603 4134 
L 603 4863 
z
" transform="scale(0.015625)"/>
      <path id="DejaVuSans-6e" d="M 3513 2113 
L 3513 0 
L 2938 0 
L 2938 2094 
Q 2938 2591 2744 2837 
Q 2550 3084 2163 3084 
Q 1697 3084 1428 2787 
Q 1159 2491 1159 1978 
L 1159 0 
L 581 0 
L 581 3500 
L 1159 3500 
L 1159 2956 
Q 1366 3272 1645 3428 
Q 1925 3584 2291 3584 
Q 2894 3584 3203 3211 
Q 3513 2838 3513 2113 
z
" transform="scale(0.015625)"/>
      <path id="DejaVuSans-65" d="M 3597 1894 
L 3597 1613 
L 953 1613 
Q 991 1019 1311 708 
Q 1631 397 2203 397 
Q 2534 397 2845 478 
Q 3156 559 3463 722 
L 3463 178 
Q 3153 47 2828 -22 
Q 2503 -91 2169 -91 
Q 1331 -91 842 396 
Q 353 884 353 1716 
Q 353 2575 817 3079 
Q 1281 3584 2069 3584 
Q 2775 3584 3186 3129 
Q 3597 2675 3597 1894 
z
M 3022 2063 
Q 3016 2534 2758 2815 
Q 2500 3097 2075 3097 
Q 1594 3097 1305 2825 
Q 1016 2553 972 2059 
L 3022 2063 
z
" transform="scale(0.015625)"/>
      <path id="DejaVuSans-31" d="M 794 531 
L 1825 531 
L 1825 4091 
L 703 3866 
L 703 4441 
L 1819 4666 
L 2450 4666 
L 2450 531 
L 3481 531 
L 3481 0 
L 794 0 
L 794 531 
z
" transform="scale(0.015625)"/>
     </defs>
     <use xlink:href="#DejaVuSans-6c"/>
     <use xlink:href="#DejaVuSans-69" x="27.783203"/>
     <use xlink:href="#DejaVuSans-6e" x="55.566406"/>
     <use xlink:href="#DejaVuSans-65" x="118.945312"/>
     <use xlink:href="#DejaVuSans-31" x="180.46875"/>
    </g>
   </g>
   <g id="text_2">
    <!-- line2 -->
    <g transform="translate(73.832727 226.141466) scale(0.12 -0.12)">
     <defs>
      <path id="DejaVuSans-32" d="M 1228 531 
L 3431 531 
L 3431 0 
L 469 0 
L 469 531 
Q 828 903 1448 1529 
Q 2069 2156 2228 2338 
Q 2531 2678 2651 2914 
Q 2772 3150 2772 3378 
Q 2772 3750 2511 3984 
Q 2250 4219 1831 4219 
Q 1534 4219 1204 4116 
Q 875 4013 500 3803 
L 500 4441 
Q 881 4594 1212 4672 
Q 1544 4750 1819 4750 
Q 2544 4750 2975 4387 
Q 3406 4025 3406 3419 
Q 3406 3131 3298 2873 
Q 3191 2616 2906 2266 
Q 2828 2175 2409 1742 
Q 1991 1309 1228 531 
z
" transform="scale(0.015625)"/>
     </defs>
     <use xlink:href="#DejaVuSans-6c"/>
     <use xlink:href="#DejaVuSans-69" x="27.783203"/>
     <use xlink:href="#DejaVuSans-6e" x="55.566406"/>
     <use xlink:href="#DejaVuSans-65" x="118.945312"/>
     <use xlink:href="#DejaVuSans-32" x="180.46875"/>
    </g>
   </g>
  </g>
 </g>
 <defs>
  <clipPath id="pc0233506fd">
   <rect x="57.6" y="115.008" width="357.12" height="119.04"/>
  </clipPath>
 </defs>
</svg>
